<?xml version="1.0" encoding="utf-8"?>
<!-- Generator: Adobe Illustrator 22.1.0, SVG Export Plug-In . SVG Version: 6.00 Build 0)  -->
<svg version="1.1" id="Capa_1" xmlns="http://www.w3.org/2000/svg" xmlns:xlink="http://www.w3.org/1999/xlink" x="0px" y="0px"
	 viewBox="0 0 60 44" style="enable-background:new 0 0 60 44;" xml:space="preserve">
<g>
	<path d="M15.5,17.5l0.3,0.2c0-0.1,0-0.2,0.1-0.2l0,0v0.9l0,0l0,0v0.9c0,0.1,0,0.1-0.1,0.1v0c0.1,0,0.1,0,0.1,0.1V20l0,0.1l0,0.2
		v0.9c0,0.1,0,0.1-0.1,0.1l0,0.2v0c0,0.1-0.1,0.1-0.3,0.1v0c0.2,0,0.4,0,0.4,0.1v0.1l0,0l0,0.1c0,0.2-0.1,0.4-0.2,0.4l0,0v0
		l-0.1,0.2l0.1,0.1c-0.2,0.1-0.3,0.1-0.3,0.2h0.1l0.2,0v0l0,0h0l0.1,0.1v0.4l-0.1,0.1l0,0v0.1c0,0.1,0,0.1-0.1,0.1v0.1l0,0h0
		l0.1,0.1v0.3l0,0l0,0v0.3l0,0l0,0.1c0,0.9-0.1,1.7-0.3,2.2h0l0,0h0l0,0v0l-0.1,0.1l0,0l-0.1,0.3c0.1,0,0.2-0.1,0.3-0.2l0.1,0.3h0
		l-0.1,0l-0.1-0.1c-0.2,0-0.3,0.2-0.4,0.4l-0.2,0.2h0.1l0,0h0l0.2,0l0.2,0v0c0.2,0,0.4-0.4,0.6-1.1h0l0,0h0v0l0.2-0.1l0,0v0l0-0.2
		l0,0h0l0-0.3l0,0v0c0.1-0.1,0.1-0.3,0.1-0.4v-0.7l0,0l0,0v-0.1l0-0.2l0,0v0l0-0.2l0,0v0l0.1-0.1v0h-0.1v-0.2c0-0.1,0.1-0.1,0.2-0.1
		v0c-0.1,0-0.2-0.1-0.2-0.1v0c0-0.1,0-0.1,0.1-0.1v0c-0.1,0-0.1,0-0.1-0.1v0l0.3-0.2l0,0l0,0h0l0-0.1l0,0v0l0-0.2l0,0h0.1l0.1,0.1
		c-0.1,0.3-0.1,0.7-0.1,1.2v0.1L16.7,24l0,0c0,0.1,0,0.1-0.1,0.1v0c0.2,0,0.3,0,0.3,0.1h-0.1v0h0.1v0.1h0l0,0.3v0.2l-0.1,0.3v0.4
		c0,0.1,0,0.1-0.1,0.1v0c0.1,0,0.1,0,0.1,0.1h-0.1l0.1,0.4l-0.3,0.9h0c-0.1,0.4-0.3,0.6-0.4,0.7l0,0.3l0.4-0.1
		c0,0.1-0.2,0.1-0.5,0.2c0,0.1-0.1,0.2-0.2,0.3l0,0v0.1c-0.2,0.2-0.3,0.4-0.4,0.4v0.2c-0.3,0.4-0.5,0.6-0.7,0.6h-0.2v-0.1l-0.2,0.3
		l-0.5,0.2h0l0,0l-0.4,0.1v0h-0.1v-0.1l-0.6,0.1l0,0h0l-0.2,0.1l-0.1,0l-0.1,0.2l0,0h0l-0.1,0l-0.2-0.1l-0.2,0h-0.1l0,0h0
		c0,0.1,0,0.1-0.1,0.1L11,30.4v0c0-0.1,0.1-0.1,0.2-0.1v0h-0.1l0,0h0l-0.1,0v0.1h-0.4l-0.1-0.1l-0.1,0.1l-0.5-0.1H9.5l-0.1-0.1
		l-0.1,0v0c-0.3-0.1-0.5-0.3-0.5-0.6v-0.6l0.1-0.1l-0.1-0.6l0.1,0v0H8.8v-0.1h0.1v0l-0.1-0.2l0.2,0v0c0,0-0.1-0.1-0.2-0.1l0,0v-0.1
		c0-0.1,0.1-0.1,0.2-0.1v-0.2c-0.1,0-0.2-0.1-0.2-0.4H8.7v-0.1l0.1,0l0.1,0v0l0,0v0l0,0h0.1L9,26.6c-0.2,0.1-0.4,0.2-0.5,0.2v-0.1
		c0,0,0.1-0.1,0.4-0.2L9,26.1V26H8.9c-0.1,0.1-0.2,0.1-0.3,0.1c0,0.1,0,0.1-0.1,0.1h0v-0.1c0,0,0.1-0.1,0.2-0.1v-0.1h0.1v0.1h0
		c0.1,0,0.2-0.1,0.3-0.2v-0.1h0l-0.4,0.2l0,0l-0.1,0.1l-0.1-0.1v-0.1l0.1-0.1l0.1,0.1c0.1-0.1,0.2-0.1,0.4-0.1l0.2,0l0.2-0.2l0-0.2
		l0,0l0,0v-0.2l0.1-0.1l0,0v0l0,0.3v0h0c0-0.1,0.1-0.1,0.2-0.1c0-0.1,0.1-0.1,0.3-0.2v-0.1c0.1,0,0.1,0.1,0.1,0.2l0,0l0.1,0l0.1-0.2
		h0V25l0,0h0.1l0,0h0l0,0v0c-0.1-0.1-0.1-0.2-0.2-0.4l0.1,0v0h-0.1l0-0.2l0-0.1c0.1,0,0.1,0,0.1-0.1h0.1v0l0,0.1l0.1-0.1h0v0
		c-0.1,0.1-0.1,0.2-0.1,0.3h0l0.1,0.2l0.2-0.1v0l-0.1,0.1c0,0.1,0.1,0.2,0.1,0.2c0.1-0.2,0.1-0.2,0.2-0.2l0,0v-0.1h0l0,0h0
		c0.1-0.2,0.1-0.3,0.2-0.3v0.2c0,0.1,0,0.1-0.1,0.1l0,0.1l0,0v0.2L11,25l-0.1-0.2l-0.1,0.2h0.2c0.2,0,0.4-0.1,0.5-0.3v0.1l0.2-0.2h0
		l-0.1,0.1v0l0.1-0.1l-0.1-0.3v0l0,0v0l0,0h0c0.1,0,0.1-0.2,0.2-0.5v-0.1h0.1v0c-0.2-0.2-0.2-0.4-0.2-0.5l0.1-0.4h-0.1v-0.4
		c0-0.1,0.1-0.1,0.2-0.1v-0.1c0-0.1,0-0.2-0.1-0.3l0.1-0.3l0,0v0l0.1-0.1v-0.1l-0.1-0.1v-0.1l0.1-0.1h0l0,0h0l0,0v-0.2l0.1-0.1
		l-0.1-0.6l0-0.2l0-0.3v-0.1l0.1-0.1l-0.1-0.5c0,0,0.1-0.1,0.2-0.3c-0.1,0-0.1-0.2-0.1-0.6c0-0.2,0.1-0.3,0.2-0.3l0,0l0,0v0.1
		l0.1-0.1c0,0,0.1,0.1,0.1,0.2l-0.2,0.2c0,0.2,0,0.3,0.1,0.3l0,0v0.1l0,0v0h-0.1v0.2H12V19h-0.1l0.1,0.3l0,0l0.1,0.1l0,0h0l0,0l0,0
		v0c0,0.1,0.1,0.1,0.2,0.1l0,0.3l0,0.2l0,0v0l0,0.2L12,20.4c0.1,0,0.1,0,0.1,0.1v0.1l0,0.2l0,0.1L12,21.1l0,0h0l0,0v0
		c0.2,0,0.2,0.1,0.2,0.1v0.1l0,0l0,0V24l0,0.2l0,0.2c0.1,0,0.1,0,0.1-0.1l0,0h0l0,0v0.1c-0.2,0.1-0.3,0.3-0.3,0.6l0.1,0l0.1-0.1l0,0
		v0l-0.2,0.3h0l0,0h0v0.2h0c0.1-0.1,0.2-0.1,0.2-0.2h0c0.1,0,0.1,0,0.1,0.1c0.1,0,0.2-0.1,0.2-0.3v-0.1l0-0.2l0.1-0.3l-0.1,0v-0.1
		l0,0h0l0-0.5l0,0l0-0.2v-1c0-0.1,0.1-0.1,0.3-0.1v0c-0.2,0-0.3,0-0.3-0.1v-0.8c0-0.1,0.1-0.1,0.2-0.1h0.2l0,0h0
		c0-0.1,0-0.1,0.1-0.1v0H13v-0.1l0.2,0l0.1,0l0.1,0L13.4,21h-0.1l-0.2,0l0,0h0l-0.2,0h0V21h0c0,0.1,0,0.2-0.1,0.2l0,0v0h-0.1v-0.7
		c0-0.1,0.1-0.1,0.2-0.1v0c-0.2,0-0.2,0-0.2-0.1v-0.3h0.1v0.2h0l0.2-0.3c-0.1-0.1-0.2-0.1-0.3-0.1l0-0.1l0-0.2v-0.2l0.1-0.1H13v0.1
		h0.1c0-0.1,0.1-0.1,0.2-0.1L13.1,19c0-0.1,0.2-0.1,0.5-0.1c0,0.1,0.1,0.1,0.2,0.2c0.1-0.2,0.3-0.3,0.4-0.3v0h0l0,0h0l-0.1-0.1
		l-0.2,0.1c-0.1,0-0.2-0.1-0.2-0.2h-0.2c0,0.1-0.1,0.2-0.2,0.2l-0.1-0.1c0-0.2,0.2-0.3,0.5-0.3l0.2,0v0l-0.1,0.1v0h0
		c0-0.1,0.1-0.1,0.2-0.2h0.1v0.2h0c0-0.1,0.1-0.3,0.4-0.4l0.1-0.2V18l-0.2,0.1l-0.1,0l-0.1,0.1H14v0c0.1-0.2,0.3-0.2,0.5-0.2
		c0.1,0,0.1,0.1,0.1,0.2h0c0.1-0.2,0.1-0.3,0.2-0.3H15v0l0,0v0l0,0h0l0,0h0l0,0v-0.1l0.1,0.1c0-0.1,0.1-0.1,0.3-0.2v0V17.5
		L15.5,17.5L15.5,17.5z M8.5,25.2L8.5,25.2L8.5,25.2L8.5,25.2L8.5,25.2z M8.7,25.3h0.2H8.7L8.7,25.3L8.7,25.3z M8.9,26.2L8.9,26.2
		L8.9,26.2v0.1H8.8L8.9,26.2L8.9,26.2z M8.9,26.8l0,0.2h0L8.9,26.8L8.9,26.8z M9,24L9,24L9,24L9,24L9,24z M9.1,24.6L9.1,24.6
		L9.1,24.6L9.1,24.6L9.1,24.6z M9.1,26h0.1v-0.1L9.1,26L9.1,26z M9.7,26.3L9.7,26.3l0,0.1l-0.3,0v0.5l0,0l0,0v0.4
		c-0.1,0.1-0.1,0.2-0.1,0.3l-0.2,0h0v0.1l0,0h0.2l0.1,0.1l-0.1,0v0c0.1,0,0.2,0,0.2,0.1v0.9c0,0.1-0.1,0.1-0.3,0.1v0h0l0.4,0
		c0,0.1,0.7,0.3,2.2,0.4h0.5c1.5,0,2.6-0.5,3.4-1.4c-0.4,0-0.9,0.2-1.3,0.5c-0.6,0.3-1.3,0.4-2.1,0.4c-0.9,0-1.4-0.1-1.6-0.2l0-0.1
		l0,0h0l0,0h0l-0.2,0c-0.2,0-0.4-0.1-0.4-0.1v-0.1l0.1-0.1h0.3l0.3,0v0l-0.1,0l0,0H10l-0.1-0.1v-0.1l0,0l0,0v-1
		c0-0.1,0.1-0.2,0.4-0.2v0l-0.3,0h0l0,0h0c0-0.3-0.1-0.5-0.2-0.5v-0.1h0.1v-0.1h0L9.7,26.3z M9.1,26.9L9.1,26.9L9.1,26.9L9.1,26.9
		L9.1,26.9z M9.1,24.3L9.1,24.3L9.1,24.3L9.1,24.3z M9.1,24.9L9.1,24.9L9.1,24.9L9.1,24.9L9.1,24.9z M9.1,30L9.1,30L9.1,30L9.1,30
		L9.1,30z M9.2,25.8L9.2,25.8L9.2,25.8L9.2,25.8L9.2,25.8z M9.3,24.5L9.3,24.5l0.1,0.1v0.1l-0.1,0.1l0,0V24.5z M9.3,27.3L9.3,27.3
		L9.3,27.3L9.3,27.3L9.3,27.3z M9.6,25.6L9.6,25.6c0,0.1-0.1,0.2-0.2,0.4v0.2h0.1L9.9,26v-0.1H9.8v0l0,0H9.6v-0.2h0.1v0L9.6,25.6
		l0.2-0.1h0v0l0,0v0l0.2,0.1l0.4-0.1v0h-0.1L10,25.7v-0.1l0.3-0.1v0l-0.2,0L10,25.5l-0.1-0.1l0,0l-0.1,0C9.6,25.5,9.6,25.5,9.6,25.6
		z M9.4,26.2v0.1h0c0.1,0,0.2-0.1,0.2-0.1H9.4z M9.5,25.7L9.5,25.7L9.5,25.7L9.5,25.7L9.5,25.7z M9.6,26.7L9.6,26.7L9.6,26.7l0,0.2
		H9.6v0L9.6,26.7z M9.7,24.3L9.7,24.3L9.7,24.3L9.7,24.3L9.7,24.3z M9.7,25.8L9.7,25.8l0.1,0v-0.1L9.7,25.8z M9.7,24.6l0.2,0.2v0.1
		L9.7,24.6L9.7,24.6z M9.9,24.5L9.9,24.5L9.9,24.5L9.9,24.5L9.9,24.5z M10,25.9L10,25.9h0.2v-0.1L10,25.9L10,25.9z M10.7,27.3
		L10.7,27.3l0,0.1l-0.6,0.2h0v0.1l0.2,0v0c0-0.1,0.1-0.1,0.4-0.2v0l0.2-0.1h0.2l0,0h0c0-0.1,0.1-0.1,0.2-0.1v0L10.7,27.3L10.7,27.3
		L10.7,27.3z M10.2,25l0.1,0.2h0l0-0.2H10.2z M10.5,25.7c0,0.1-0.1,0.1-0.2,0.1v0.1C10.5,25.9,10.6,25.8,10.5,25.7L10.5,25.7
		L10.5,25.7z M10.3,26l0,0.1h0l0.1-0.2L10.3,26L10.3,26L10.3,26z M10.4,26.8v0.1l0.2-0.1v0H10.4z M10.4,27.8L10.4,27.8L10.4,27.8
		L10.4,27.8L10.4,27.8z M10.5,23.8L10.5,23.8l0.1,0.1L10.5,23.8L10.5,23.8z M12,25.4L12,25.4l0.1,0.1L12,25.4l0.2,0.1l0,0.2h0.1v0.1
		h-0.1c-0.1,0-0.1-0.1-0.1-0.2h0l-0.6,0.3v-0.1h0c-0.6,0.1-0.9,0.2-0.9,0.3h0.1l0,0h0l0,0h0l0,0l0.2,0c0.1,0,0.3-0.1,0.4-0.2v0
		c0,0.1-0.1,0.2-0.3,0.2v0h0.4V26h0.1v0.1c0.5,0,0.8-0.3,1-0.8l-0.1,0L12,25.4z M10.6,24.8l0,0.2v0h0V25h0l0,0h0v0
		C10.7,24.9,10.6,24.8,10.6,24.8z M10.5,26.4L10.5,26.4l0,0.2l0,0v0l0,0h0.1c0-0.2,0-0.3,0.1-0.4v0L10.5,26.4z M10.5,27.8L10.5,27.8
		c0.1,0,0.3,0,0.5,0h0.1l0,0l0.2-0.1v0l-0.1,0l0,0h0l0,0L10.5,27.8z M10.7,25.2l-0.1,0.2h0.1l0.2-0.1v0h0H10.7L10.7,25.2z
		 M10.7,25.7L10.7,25.7c0.2,0.1,0.3,0,0.3,0L10.7,25.7L10.7,25.7z M10.7,26.7L10.7,26.7l0.1,0v-0.1L10.7,26.7z M11.1,24.1L11.1,24.1
		l-0.2,0.3v0L11.1,24.1z M11,26.4L11,26.4L11,26.4h0.4l0.2,0v-0.1h-0.2L11,26.4z M11.1,25.2v0.1h0.1L11.1,25.2L11.1,25.2z
		 M11.1,25.2L11.1,25.2L11.1,25.2h0.2l0,0l0.1-0.1v0h0v0.1h-0.1v0l0.1-0.1v0L11.1,25.2z M11.2,29.9L11.2,29.9l0.1,0l0.1,0l0.2,0.1v0
		l0,0v0l0.1,0.1c0.3-0.1,0.4-0.2,0.4-0.2h0C11.8,29.7,11.5,29.8,11.2,29.9z M11.3,27.1L11.3,27.1L11.3,27.1L11.3,27.1L11.3,27.1z
		 M11.3,27.5L11.3,27.5L11.3,27.5L11.3,27.5L11.3,27.5z M11.4,30.2L11.4,30.2L11.4,30.2L11.4,30.2L11.4,30.2z M11.5,23.9L11.5,23.9
		L11.5,23.9V24h0L11.5,23.9L11.5,23.9L11.5,23.9L11.5,23.9z M11.5,25.2L11.5,25.2L11.5,25.2L11.5,25.2L11.5,25.2z M11.5,25L11.5,25
		L11.5,25L11.5,25L11.5,25z M11.6,23.7L11.6,23.7L11.6,23.7L11.6,23.7L11.6,23.7z M11.7,24.7c0,0.1,0,0.1-0.1,0.1l0,0.1
		C11.7,25,11.7,24.9,11.7,24.7L11.7,24.7L11.7,24.7z M11.6,27.3L11.6,27.3l0.1,0v-0.1L11.6,27.3z M11.7,24.5L11.7,24.5L11.7,24.5
		L11.7,24.5L11.7,24.5z M11.7,30.2L11.7,30.2l0.2,0v0H11.7z M11.7,24.4L11.7,24.4L11.7,24.4L11.7,24.4L11.7,24.4z M11.8,23.9
		L11.8,23.9L11.8,23.9L11.8,23.9L11.8,23.9z M11.8,25.5L11.8,25.5L11.8,25.5L11.8,25.5L11.8,25.5z M12.1,17.2L12.1,17.2l-0.1,0.2
		l-0.1-0.1l0,0H12.1z M11.9,27.5L11.9,27.5L11.9,27.5L11.9,27.5L11.9,27.5z M12,18.8L12,18.8L12,18.8L12,18.8L12,18.8z M12.1,24.9
		L12.1,24.9l0.1,0v0H12.1z M12.1,26.6L12.1,26.6L12.1,26.6L12.1,26.6L12.1,26.6z M12.1,27L12.1,27l0.1,0.1v0L12.1,27z M12.3,16.9
		L12.3,16.9L12.3,16.9l-0.2,0.3v0C12.2,17,12.3,16.9,12.3,16.9z M12.3,23.8L12.3,23.8L12.3,23.8V24h0v0L12.3,23.8z M12.3,24.5
		L12.3,24.5L12.3,24.5L12.3,24.5z M12.3,25.5L12.3,25.5L12.3,25.5L12.3,25.5L12.3,25.5z M12.5,24.9L12.5,24.9L12.5,24.9v0.1h-0.1
		L12.5,24.9z M12.4,24.7l0.1,0.1h0L12.4,24.7L12.4,24.7z M12.7,18.3L12.7,18.3l0,0.1l-0.2,0v0L12.7,18.3z M12.7,19h0.2V19L12.7,19
		L12.7,19z M12.7,17.9L12.7,17.9c0.1,0.1,0,0.2-0.1,0.2v0L12.7,17.9z M12.9,18.5L12.9,18.5l0.1,0.2l-0.2,0.1h-0.1l0-0.2
		c0.1,0,0.1,0,0.1-0.1L12.9,18.5L12.9,18.5z M12.7,19.4L12.7,19.4L12.7,19.4L12.7,19.4z M12.7,29.8L12.7,29.8L12.7,29.8L12.7,29.8z
		 M12.8,18.6L12.8,18.6L12.8,18.6L12.8,18.6L12.8,18.6z M12.9,19.5L12.9,19.5L12.9,19.5L12.9,19.5L12.9,19.5z M12.9,19.8L12.9,19.8
		l0.1,0l0.4-0.1l0.1,0.1L13.3,20c0,0.1-0.1,0.1-0.4,0.1l0,0v0.1l0,0H13l0.1,0.1c0-0.1,0.2-0.1,0.5-0.2l0.1,0.1l0,0v-0.1l-0.2,0l0,0
		h-0.1L13.4,20l0.4-0.4h0l-0.2,0l-0.2,0L12.9,19.8z M12.9,30.1L12.9,30.1l0,0.1l0.2,0v0L12.9,30.1z M13,16.8L13,16.8l0,0.1h0V16.8
		L13,16.8L13,16.8z M13,18.3L13,18.3L13,18.3L13,18.3L13,18.3z M13,19.4L13,19.4L13,19.4L13,19.4L13,19.4z M13,22L13,22L13,22L13,22
		L13,22z M13,29.7L13,29.7L13,29.7L13,29.7L13,29.7z M13.1,17.8L13.1,17.8l0.1,0.1v0.1h-0.1L13.1,17.8z M13.1,29.7L13.1,29.7
		L13.1,29.7L13.1,29.7L13.1,29.7z M13.2,18L13.2,18L13.2,18L13.2,18L13.2,18z M13.3,19c0,0.1,0.1,0.2,0.1,0.2l0,0v0L13.3,19h0.1
		H13.3z M13.3,22.8L13.3,22.8l0.1,0l0,0v0L13.3,22.8z M13.4,19L13.4,19L13.4,19L13.4,19L13.4,19z M13.5,29.6L13.5,29.6
		c0.1,0,0.1,0.1,0.1,0.2l0,0.1h0.1l0.1-0.1v-0.2L13.5,29.6L13.5,29.6z M13.5,20.3L13.5,20.3L13.5,20.3L13.5,20.3z M13.6,19.2
		L13.6,19.2L13.6,19.2L13.6,19.2L13.6,19.2z M13.7,17.6L13.7,17.6l0,0.1h-0.1L13.7,17.6z M13.7,29.6L13.7,29.6l0.2,0.1l0.1-0.1H13.7
		z M14,16.8l0,0.2l0,0h0l-0.1-0.1L13.8,17h0v-0.2L14,16.8z M13.7,23.3L13.7,23.3L13.7,23.3L13.7,23.3L13.7,23.3z M14.5,17.6h0.1v0.1
		l-0.2,0.2l-0.1-0.1l-0.5,0.2l0,0v0l0-0.1l0,0L14.5,17.6z M13.9,18L13.9,18L13.9,18L13.9,18L13.9,18z M13.9,19L13.9,19L13.9,19
		L13.9,19L13.9,19z M14.7,28.5L14.7,28.5l-0.6,0.3l0,0l-0.1,0.1h0v-0.1L14.7,28.5z M13.9,19.6L13.9,19.6L13.9,19.6L13.9,19.6
		L13.9,19.6z M13.9,21.2L13.9,21.2L13.9,21.2L13.9,21.2L13.9,21.2z M14,19.4L14,19.4L14,19.4L14,19.4L14,19.4z M14.1,16.7L14.1,16.7
		l0.2,0.1v0h0L14.1,16.7L14.1,16.7z M14.1,24.1L14.1,24.1l0.1,0v0H14.1z M14.1,29.6L14.1,29.6L14.1,29.6L14.1,29.6L14.1,29.6z
		 M14.2,19.5L14.2,19.5L14.2,19.5L14.2,19.5L14.2,19.5z M14.2,18.8L14.2,18.8L14.2,18.8L14.2,18.8L14.2,18.8z M14.2,20L14.2,20
		L14.2,20L14.2,20L14.2,20z M14.3,19.6v0.1h0.1L14.3,19.6L14.3,19.6z M14.3,21.6L14.3,21.6l0.1,0.1v-0.1H14.3z M14.4,20.3L14.4,20.3
		L14.4,20.3L14.4,20.3z M14.4,23L14.4,23l0.1,0v0H14.4z M14.5,16.8L14.5,16.8L14.5,16.8V17h-0.1v-0.1L14.5,16.8z M14.4,18.4
		L14.4,18.4L14.4,18.4L14.4,18.4L14.4,18.4z M14.5,22.2v0.1h0L14.5,22.2L14.5,22.2z M14.5,24.7L14.5,24.7L14.5,24.7L14.5,24.7
		L14.5,24.7z M14.5,18.6L14.5,18.6L14.5,18.6L14.5,18.6z M14.5,23.9L14.5,23.9l0.1,0v0H14.5z M14.6,18.4v0.1h0L14.6,18.4L14.6,18.4z
		 M14.6,22.7L14.6,22.7L14.6,22.7L14.6,22.7L14.6,22.7z M15.1,16.8L15.1,16.8L15.1,16.8l-0.1,0.2l-0.1,0L14.7,17h-0.1v0
		C14.7,16.9,14.8,16.8,15.1,16.8z M14.7,18.3L14.7,18.3l0.1-0.1L14.7,18.3L14.7,18.3z M14.7,18.7L14.7,18.7L14.7,18.7L14.7,18.7
		L14.7,18.7z M14.7,20.5L14.7,20.5l0.1,0.1L14.7,20.5L14.7,20.5z M14.7,22.1L14.7,22.1l0.1,0.1c0-0.1,0-0.1,0.1-0.1v0H14.7z
		 M14.7,29.5L14.7,29.5L14.7,29.5L14.7,29.5L14.7,29.5z M14.7,18.1L14.7,18.1l0.1-0.1v0L14.7,18.1z M14.7,19.2L14.7,19.2L14.7,19.2
		L14.7,19.2L14.7,19.2z M14.7,22.6L14.7,22.6l0.1,0v0H14.7z M14.7,29.1L14.7,29.1L14.7,29.1L14.7,29.1z M14.8,28.2H15v0.1L14.8,28.2
		L14.8,28.2z M14.8,23.5L14.8,23.5L14.8,23.5L14.8,23.5L14.8,23.5z M14.9,18.2L14.9,18.2L14.9,18.2L14.9,18.2L14.9,18.2z M14.9,28.4
		L14.9,28.4L14.9,28.4L14.9,28.4z M14.9,29.2L14.9,29.2L14.9,29.2H15v-0.1L14.9,29.2z M14.9,18.1L14.9,18.1l0.1,0.2h0v-0.1
		L14.9,18.1L14.9,18.1z M14.9,18.7L14.9,18.7L14.9,18.7L14.9,18.7L14.9,18.7z M14.9,23.2L14.9,23.2l0.1,0.1h0v-0.1L14.9,23.2
		L14.9,23.2z M15,22.1L15,22.1L15,22.1L15,22.1z M15.1,23.2h0.1l0.1-0.1L15.1,23.2L15.1,23.2z M15.1,19.4L15.1,19.4l0.1,0.1
		L15.1,19.4L15.1,19.4z M15.1,24.3L15.1,24.3L15.1,24.3L15.1,24.3L15.1,24.3z M15.4,17.5L15.4,17.5L15.4,17.5l0,0.2l-0.1-0.1
		L15.4,17.5z M15.2,19L15.2,19L15.2,19L15.2,19L15.2,19z M15.3,16.8L15.3,16.8l0,0.1h0V16.8z M15.3,21.4L15.3,21.4l0.1,0v0H15.3z
		 M15.4,22L15.4,22L15.4,22l0.2,0.1c0.2-0.1,0.2-0.1,0.2-0.2v0h-0.2C15.6,22,15.5,22,15.4,22z M15.4,18L15.4,18l0.1,0.1V18H15.4z
		 M15.4,16.8L15.4,16.8L15.4,16.8L15.4,16.8L15.4,16.8z M15.4,24.1L15.4,24.1l0.1,0.1l0.1-0.1H15.4z M15.5,22.3L15.5,22.3l0.2,0.1v0
		L15.5,22.3z M15.6,17.6L15.6,17.6L15.6,17.6L15.6,17.6L15.6,17.6z M15.8,16.6l0.2,0.1l0.2,0v0l0,0l0,0.1h0l0.1-0.1l0.1,0.1l0,0l0,0
		v0.1l-0.2,0C16.2,17,16.1,17,16,17h-0.3v-0.1l0.2,0v0l-0.2,0c0,0.1,0,0.1-0.1,0.1h-0.1v-0.1L15.8,16.6z M15.7,23.9L15.7,23.9
		L15.7,23.9L15.7,23.9L15.7,23.9z M15.8,22.3L15.8,22.3L15.8,22.3L15.8,22.3L15.8,22.3z M15.8,24.7L15.8,24.7l0,0.2h0
		C15.8,24.7,15.8,24.7,15.8,24.7L15.8,24.7L15.8,24.7z M15.9,27L15.9,27l0,0.1h0V27z M16,26.8L16,26.8L16,26.8L16,26.8z M16,26.9
		L16,26.9L16,26.9V27V26.9z M16.4,17.3L16.4,17.3L16.4,17.3h0.1h0.2l0,0.2l0,0.2l0.1,0.6l0,0.4v0.1c-0.1,0-0.2,0.1-0.2,0.2l-0.2,0
		l0,0v-0.5l0.1-0.1l-0.1-0.1v-0.4l0,0l0,0V17.3z M16.9,19L16.9,19c0,0.1-0.1,0.1-0.2,0.1l0.1,0.2c-0.2,0.1-0.3,0.2-0.3,0.2h0.2v0
		c0,0-0.1,0.1-0.3,0.2l0,0v-0.4l0.2-0.2h-0.2C16.4,19.1,16.6,19,16.9,19z M16.8,19.8L16.8,19.8L16.8,19.8c0.1,0.1,0,0.2-0.2,0.2v0
		h0.1l0,0l0,0v0l-0.2,0.1v0.1h0.2c0.1,0,0.1,0,0.1,0.1l0,0.2l0,0.1l-0.1,0.1l0.1,0.1l-0.1,0.3v0.1c-0.1,0-0.1,0.1-0.2,0.2h0
		l-0.1-0.1v0c0-0.1,0-0.1,0.1-0.1v0c-0.1,0-0.1,0-0.1-0.1v-0.2c0.1,0,0.2,0,0.2-0.1v0l0,0h0l-0.1-0.1v-0.4l0,0l0,0v-0.2
		c0-0.1,0-0.1,0.1-0.1v0c-0.1,0-0.1,0-0.1-0.1C16.6,19.9,16.7,19.8,16.8,19.8z M16.6,21.5L16.6,21.5L16.6,21.5h0.2l0,0v0l-0.3,0.1v0
		l0.2,0c0,0-0.1,0.1-0.2,0.1l0,0v-0.2C16.4,21.5,16.5,21.5,16.6,21.5z M16.6,21.8c0.1,0,0.1,0.1,0.1,0.2h0.1v0.1h-0.1v0.2h0l0,0h0
		l0,0v0.1l-0.1,0.1h-0.1v0l0-0.1c-0.1,0.1-0.2,0.2-0.3,0.2l0,0v-0.1l0,0l0,0v-0.2l0.1-0.1L16.4,22L16.6,21.8z M16.6,22.8L16.6,22.8
		l0,0.2l0,0v0l0,0h-0.1l-0.1-0.1v-0.2L16.6,22.8z M16.6,22L16.6,22l0.2,0v0H16.6z M16.6,24.3L16.6,24.3L16.6,24.3L16.6,24.3
		L16.6,24.3z M16.7,27.4L16.7,27.4L16.7,27.4v0.1h-0.1L16.7,27.4L16.7,27.4z M16.7,19.3L16.7,19.3L16.7,19.3L16.7,19.3L16.7,19.3z
		 M16.8,21.6L16.8,21.6L16.8,21.6L16.8,21.6L16.8,21.6z M16.8,27.9V28h-0.1L16.8,27.9L16.8,27.9z M16.8,17.7L16.8,17.7L16.8,17.7
		L16.8,17.7L16.8,17.7z M17,26.7L17,26.7l-0.1,0.2h0v0L17,26.7z M16.9,27.3L16.9,27.3L16.9,27.3L16.9,27.3z M17.2,27.5L17.2,27.5
		L17.2,27.5L17.2,27.5L17.2,27.5z M17.5,27.6L17.5,27.6L17.5,27.6L17.5,27.6L17.5,27.6z"/>
	<path d="M16.2,26.3L16.2,26.3l-0.2,0.1v0L16.2,26.3z M16.2,25.3L16.2,25.3l-0.1,0.2v0L16.2,25.3z M16.8,25.8L16.8,25.8L16.8,25.8
		L16.8,25.8z M21.6,16.6h0.1l0,0l0,0H22v0.1l-0.2,0v0c0.1,0,0.2,0.1,0.2,0.2H22v-0.1h0l0,0v-0.1c0,0,0.1-0.1,0.2-0.1l1.5,0.1l0,0v0
		l0,0h0.1v0l0.3-0.2c0.4,0.1,1,0.4,1.8,0.9l0,0l0.1,0.1l0,0l0.7,0.6c0,0.1,0.2,0.3,0.6,0.7l0,0.1h0c0.3,0.1,0.4,0.4,0.5,0.8
		c0,0.1,0.1,0.2,0.2,0.4l0,0.1h0c0.1,0,0.2,0.2,0.3,0.5l0,0.2c0.1,0,0.2,0.1,0.2,0.2v0.4c0.2,0.1,0.3,0.5,0.3,1
		c0,0.2-0.1,0.3-0.2,0.3l0,0.2h0l0,0h0l0,0v0.3c0,0.2-0.1,0.5-0.2,0.9l0.1,0.1c0,0.1,0,0.1-0.1,0.1v0.3l-0.2,0.3l0.1,0.1
		c0,0.1,0,0.1-0.1,0.1v0.2c0,0.2-0.1,0.3-0.2,0.4l0,0v0l-0.1,0.1l0,0.1H28l0,0.3c-0.2,0.2-0.3,0.3-0.4,0.3l0,0.1
		c-0.1,0.2-0.4,0.7-1,1.3c0,0.1-0.1,0.2-0.3,0.3c-0.2,0.3-0.4,0.4-0.5,0.4l0,0v0c-0.2,0.2-0.6,0.4-1.2,0.6v0
		c-0.4,0.2-0.6,0.3-0.7,0.3l-0.1,0c0,0.1,0,0.1-0.1,0.1l-0.1-0.1l-0.1,0.1l-0.1-0.1l0,0h-0.1l-0.3,0.2l-0.2-0.1h-0.2
		c0,0.1-0.1,0.2-0.4,0.2h0l-0.1-0.1c0.1-0.1,0.2-0.1,0.3-0.1v0h-0.1l-0.2,0l-0.1-0.1h0v0.1l0,0v0h0l0,0l-0.2,0h-0.3
		c-0.1,0-0.1,0-0.1-0.1h-0.1v0.2h-0.2v-0.1h-0.1l-0.1,0.1L21,30.4h0l-0.2,0l-0.1-0.1l-0.1,0.1h-0.1l0,0v-0.1l-0.2,0l-0.3,0v0
		l-0.2,0.1l0,0l-0.2,0.2c-0.2,0-0.3-0.1-0.4-0.1l-0.2,0.1l-0.2-0.1l-0.3,0l-0.2-0.1v0.1h-0.1v-0.1l-0.2,0.1c-0.1,0-0.1,0-0.1-0.1h0
		l-0.3,0c0-0.1-0.1-0.1-0.2-0.1v0l0.1-0.1v0L17.4,30l0.1,0.1v0h0l0,0l-0.3-0.2v-0.1l0.2,0c-0.1-0.1-0.1-0.2-0.1-0.4H17l0,0v0
		L17,29.2H17l0,0c0-0.3,0.1-0.4,0.1-0.4l0,0v0l-0.2-0.6h0l0,0v0l0-0.4l-0.1-0.3c0-0.2,0.1-0.3,0.2-0.3V27c0-0.1-0.1-0.2-0.2-0.3
		l0.2-0.5l0,0v0l0-0.1c-0.1,0-0.1-0.1-0.1-0.2l0.1-0.1h0l-0.1,0v0l0-0.2c0.1,0,0.1-0.1,0.1-0.2L17,24.6l0-0.1l0-0.2v0l0-0.4
		l-0.1-0.5c0,0,0.1-0.1,0.2-0.3c-0.1,0-0.1-0.3-0.2-0.8H17v0.1h0v-0.1L16.9,22H17v-0.3l0,0v0l0,0h0l0-0.2l0-0.4h0.1L17,20.8l0.1-0.1
		v-0.1l0,0v0l0,0h-0.1v0l0-0.2L16.8,20c0-0.1,0.1-0.2,0.2-0.2v-0.1l-0.1-0.5l0-0.2l0,0v0l0-0.1c-0.1,0-0.1,0-0.1-0.1l0.2-0.3
		L17,18.1l0,0h-0.1c0-0.2,0.1-0.4,0.4-0.6h0c0,0.1-0.1,0.2-0.2,0.3l0.1,0.4l0,0.2c0.1,0.2,0.1,0.4,0.1,0.5c-0.1,0-0.1,0-0.1,0.1l0,0
		h0c0.1,0.2,0.2,0.3,0.2,0.4l0,0c0.1,0,0.2,0.1,0.2,0.1c0,0.1,0,0.2-0.1,0.2l0.1,0.2l-0.2,0l0.1,0.4l-0.1,0.1h0.1v0l0,0v0l0,0.1h0
		l0,0v0.4h0l0,0h0v0.1l0,0.2h0v-0.1h0l0.1,0.1v0l-0.2,0l0,0.2h0c0-0.1,0-0.1,0.1-0.1l0,0V22l-0.1,0.1l0.1,0.2v0.1
		c0,0.1-0.1,0.1-0.2,0.1l0,0.2h0v-0.1h0.1v0.5c0,0.1-0.1,0.1-0.2,0.1l0,0v0l0,0l0,0v0.1h0.1v-0.1l0.1,0.1v0.1c0,0.1,0,0.1-0.1,0.1
		v0.1l0,0h0l0,0v0.2c0,0.1-0.1,0.1-0.2,0.1v0.2l0.1-0.1l0,0V25c0.1,0,0.1,0,0.1,0.1l-0.1,0.1v3.5c0,0.2,0.1,0.4,0.3,0.6l0.5,0h4.4
		c2.5,0,4.4-1.2,5.4-3.7c0.3-0.8,0.4-1.6,0.4-2.4c0-2.2-0.9-4-2.8-5.3c-0.9-0.5-1.9-0.8-3-0.8v0l0,0h0l0,0l0,0c-0.2,0-0.3,0-0.3-0.1
		l0,0h-0.6v-0.2h0.1v0.1h0.1v-0.1h-0.1v-0.1h0.1v0.1h0.1v-0.1C21.7,16.7,21.7,16.7,21.6,16.6L21.6,16.6L21.6,16.6z M16.9,28.7
		L16.9,28.7L16.9,28.7L16.9,28.7L16.9,28.7z M17.1,29.1L17.1,29.1l0,0.3h0L17.1,29.1L17.1,29.1z M17.1,28.2L17.1,28.2L17.1,28.2
		L17.1,28.2L17.1,28.2z M17.1,29L17.1,29L17.1,29L17.1,29L17.1,29z M17.2,29l0,0.1l0,0.3l0.1-0.1v0l0-0.2L17.2,29L17.2,29z
		 M17.5,29.3L17.5,29.3L17.5,29.3L17.5,29.3z M17.6,29.6L17.6,29.6L17.6,29.6L17.6,29.6L17.6,29.6z M22,17.5L22,17.5h0.2
		c2.8,0,4.6,1.2,5.5,3.7c0.2,0.7,0.2,1.2,0.2,1.7v0.4c0,2.3-1,3.9-3.1,5c-0.7,0.3-1.4,0.4-2.1,0.4H18l-0.1-0.1v-4.5l0,0l0,0v0
		c0-0.1,0.1-0.1,0.3-0.2v0h-0.1l-0.2,0l0,0v-0.2c0-0.1,0.1-0.1,0.2-0.1h0.1l0.2,0l0.1-0.1c0.1,0,0.1,0.1,0.1,0.2
		c0.1-0.1,0.2-0.1,0.2-0.2h0l0.2,0l0.4-0.1v0.1l-0.2,0v0h0.1v0.1c-0.1,0-0.3,0.1-0.6,0.2l0,0h0l-0.1,0v0.1l0.2,0l0.1-0.1l0,0v0l0,0
		h0l0.1,0v0c0-0.1,0-0.1,0.1-0.1h0.1v0.1c-0.1,0-0.1,0-0.1,0.1h0c0.1,0,0.2-0.1,0.3-0.2l0.2,0.1l0,0h0.3v0.1h0v-0.1l0,0l0.2-0.1h0
		l0.1,0v0.1l0,0v0h0l0.1,0l0,0v0l0,0h0.3v-0.1h0l-0.1,0l0,0v0l0.6-0.2c0.2,0,0.3,0.1,0.3,0.1v0.1l0,0l0,0v0.5l-0.1,0.1l0,0H21
		c-0.1,0-0.2,0.1-0.4,0.2h-0.3v0.1l0.3,0l0,0h0c0-0.1,0.1-0.1,0.4-0.2l0,0h0l0.1,0l0.1,0.1v0.1l0,0l0,0v1.3h1c0.6,0,1.2-0.4,1.6-1.2
		c0.2-0.5,0.3-1.1,0.3-1.7v-0.3l0.1-0.1c0,0-0.1-0.4-0.3-1.2l-0.4-0.7v0h0.1v-0.1c-0.2,0-0.3-0.1-0.4-0.2l-0.6-0.3l0-0.2l0-0.1h-0.1
		l0,0.2v0l0,0v0l-0.4-0.1l-0.2,0L21.7,20v0l-0.1,0.1l-0.1-0.2l0-0.1h0l0,0h0l0.1-0.1h0l0.2,0l0.3-0.1v-0.1h0l-0.1,0.1l-0.2-0.1
		l-0.1,0.1l0,0l0,0v0l0-0.2l0,0h-0.1l0,0.2l0,0.1h0l0,0l0,0h-0.1l-0.1-0.1h0l0,0h0l0,0v0.1l-0.1,0.1c0.1,0.1,0.1,0.2,0.1,0.3h-0.1v0
		l0,0v0l-0.2,0.1v0h0.1l0,0h0l0,0l0,0v0l0,0.2h-0.1l0.1,0.1l0,0h0l0,0l0,0.1h0.2v0l-0.1,0.1v0c-0.1,0-0.2,0.1-0.2,0.1l0,0H21
		c0-0.1,0-0.1-0.1-0.1L20.8,21l0,0v0.1h-0.2l-0.2-0.1l-0.2,0.1l0,0v0c0.1-0.1,0.1-0.2,0.2-0.2l0.2,0.1h0l0,0v0
		c0-0.1,0.1-0.1,0.2-0.1v0l-0.3-0.1l-0.1,0.1h0v0l0.1-0.1v0h-0.1v-0.1h0l0,0h0l0.1-0.1h0v0.1h-0.1v0l0.2,0.1c0-0.1,0.1-0.2,0.2-0.2
		v-0.1l-0.1,0l-0.1,0.1l-0.1-0.1l0.2-0.2h0c0.1,0,0.1,0,0.1,0.1l0.1-0.1V20h-0.1v0l0.1-0.1h0V20h0l0.1-0.1c-0.1,0-0.1,0-0.1-0.1
		h-0.1v-0.1c0.1,0,0.1-0.1,0.1-0.2l0.1-0.1v0h-0.1v0.1h0l0,0h0c0,0.1-0.1,0.2-0.2,0.2l0,0.2h-0.1l0,0l-0.1,0l0,0v0L20.6,20h0v-0.1
		h0.1v-0.1c-0.1-0.1-0.1-0.2-0.2-0.2l0.1-0.1c0.1,0,0.1,0.1,0.1,0.2h0.2c0.1-0.2,0.2-0.2,0.3-0.2v-0.1h0l-0.1,0.1h0v-0.1
		c0.1,0,0.1,0,0.1-0.1c0.1,0,0.2-0.1,0.4-0.3h0v-0.1l-0.1-0.2h-0.1v0.1h0c0,0-0.1-0.1-0.1-0.2h0l0,0h0l0.1-0.1v0h0.1l0,0.2l0,0
		c0.1,0,0.1,0,0.1,0.1l0.1-0.1l0,0v-0.4c0-0.1,0.1-0.1,0.2-0.1V18h-0.1c0,0.1-0.1,0.2-0.2,0.3h0l0,0h0l0,0v0l0,0.1h0l-0.2,0
		c0-0.2,0.1-0.2,0.1-0.2l0.1,0v-0.1L21.1,18l0,0h0l0,0l0,0h-0.1v0l0.1-0.1l0.3,0.2h0l0,0v-0.1c0.1,0,0.1,0,0.1,0.1l0,0h0l0,0l0,0
		v-0.3l0.2-0.2h0.2l0,0L22,17.5z M20,21.9h0.2v0c0,0.1-0.1,0.1-0.2,0.1v0.2h0c0.2-0.1,0.3-0.1,0.3-0.2h0c0.1,0,0.1,0,0.1,0.1
		c-0.1,0.1-0.1,0.2-0.2,0.2l0,0h0c-0.1,0.2-0.2,0.4-0.5,0.6c0,0.1,0,0.1-0.1,0.1l-0.1,0v0c0,0.1,0,0.1-0.1,0.1h-0.1v0l0,0v0l0,0
		l0.1-0.1v-0.1l-0.2,0.1h-0.1L19,22.8h0c0,0.1,0.1,0.1,0.2,0.2v0l0,0v0l0,0l-0.2,0.1v-0.1c0.1,0,0.1,0,0.1-0.1l-0.2,0h-0.1V23l0,0h0
		l-0.1,0l-0.1,0.1l0,0l0,0h-0.1l0,0l0,0h0l0,0h0l-0.1,0l0,0v0l0-0.2l0,0l0.1-0.6l0,0v0L18,22h0.2v0l-0.1,0.2c0.1,0,0.2,0.1,0.2,0.2
		l0,0h0.1v0.1h0l0.1-0.1l-0.1-0.1v0c0.1,0,0.2,0,0.2-0.1l0.2,0v0.1c-0.1,0-0.1,0-0.1,0.1h-0.1v0.1l0.1-0.1h0l0,0h0
		c0-0.1,0.1-0.2,0.1-0.2l0,0h0c0-0.1,0-0.2,0.1-0.2h0l0,0.2h0l0.2-0.1v0c-0.1,0-0.1,0-0.1-0.1l0.2-0.1v0l-0.1,0.1v0h0.1v0.2l0,0l0,0
		v0.1l0.1,0.1h0l0.2-0.2v0c-0.1,0-0.1,0-0.1-0.1l0.1-0.1l0,0v-0.2L20,21.9z M18.2,20.6L18.2,20.6c-0.1,0.1-0.1,0.1-0.1,0.2H18v0
		C18,20.7,18.1,20.6,18.2,20.6z M18.1,23.2h0.2l0.1,0.1l0,0L18.1,23.2L18,23.3L18.1,23.2z M18,20.5h0.1v0.1h0L18,20.5L18,20.5z
		 M18,22.4L18,22.4l0.2,0l0,0v0h0L18,22.4z M18,24.1L18,24.1L18,24.1L18,24.1h0.1l0,0h0l0.2,0h0v0.2l0,0h0l-0.2,0v0.1l0.1,0l0.1-0.1
		v0.1c0.1-0.1,0.4-0.2,0.8-0.3l0,0v0h-0.1L19,24l0,0c0,0-0.1,0.1-0.4,0.2h-0.1c0-0.1,0.1-0.1,0.2-0.2l0-0.1C18.2,23.9,18,24,18,24.1
		z M18,21.6L18,21.6L18,21.6L18,21.6z M18.1,23.7h0.2v-0.1L18.1,23.7L18.1,23.7z M18.1,30.2L18.1,30.2L18.1,30.2L18.1,30.2
		L18.1,30.2z M18.4,21.5L18.4,21.5l-0.2,0.2h-0.1v0c0.1,0,0.1,0,0.1-0.1L18.4,21.5z M18.3,21.4v0.1h0l-0.1-0.1L18.3,21.4L18.3,21.4z
		 M18.3,22.6L18.3,22.6l0.1,0.2l0,0v0L18.3,22.6L18.3,22.6z M18.3,22.8l0,0.1h0.1L18.3,22.8L18.3,22.8z M18.3,30L18.3,30L18.3,30
		L18.3,30L18.3,30z M18.4,23.1h0.1v0.1L18.4,23.1L18.4,23.1z M18.5,20.7L18.5,20.7L18.5,20.7l-0.1,0.2l0,0v0L18.5,20.7z M18.5,20.5
		L18.5,20.5l0.1,0.1l-0.1,0.1l0,0l0,0h-0.1v0L18.5,20.5z M18.4,22.7L18.4,22.7L18.4,22.7L18.4,22.7L18.4,22.7z M18.4,21.4L18.4,21.4
		L18.4,21.4L18.4,21.4L18.4,21.4z M18.5,22h0.1v0.1l-0.1,0.1h-0.1L18.5,22L18.5,22z M18.4,22.5L18.4,22.5l0.1,0.1l0,0v0L18.4,22.5z
		 M18.6,22.7L18.6,22.7L18.6,22.7L18.6,22.7L18.6,22.7z M18.6,25.1L18.6,25.1L18.6,25.1L18.6,25.1L18.6,25.1z M18.6,21.9L18.6,21.9
		l0,0.1h0V21.9z M18.7,24.3L18.7,24.3L18.7,24.3L18.7,24.3L18.7,24.3z M18.7,22.6L18.7,22.6l0.2,0.2v-0.1L18.7,22.6L18.7,22.6z
		 M18.8,21.9L18.8,21.9L18.8,21.9L18.8,21.9L18.8,21.9z M18.8,23.9L18.8,23.9L18.8,23.9L18.8,23.9L18.8,23.9z M18.8,29.6L18.8,29.6
		l0.1,0.1l0.1-0.1v0h0L18.8,29.6z M18.8,30L18.8,30l0.2,0v0H18.8z M18.9,20.5L18.9,20.5L18.9,20.5L18.9,20.5L18.9,20.5z M19,23.5
		L19,23.5L19,23.5L19,23.5L19,23.5z M19.1,22.5l0,0.2l0.1,0.1h0L19.1,22.5L19.1,22.5z M19.5,24.3c0,0.1-0.1,0.1-0.2,0.1l-0.2,0h0v0
		l0.4,0.1c0-0.1,0.1-0.2,0.2-0.2v0H19.5L19.5,24.3L19.5,24.3z M19.1,25L19.1,25L19.1,25h0.2l0.1,0.1l0.3-0.2l0,0h0.1l0,0v0l0,0h0
		L19.1,25z M19.1,25.8L19.1,25.8l0.1,0v0H19.1z M19.2,22.4v0.1l0.1,0.1L19.2,22.4L19.2,22.4z M19.3,20.9L19.3,20.9L19.3,20.9
		L19.3,20.9L19.3,20.9z M19.3,23.9L19.3,23.9h0.2l0.1,0l0,0v0l-0.1,0L19.3,23.9z M19.4,20.3L19.4,20.3L19.4,20.3L19.4,20.3
		L19.4,20.3z M19.4,21.1L19.4,21.1L19.4,21.1L19.4,21.1L19.4,21.1z M19.4,22.5L19.4,22.5L19.4,22.5L19.4,22.5L19.4,22.5z M19.4,24.6
		L19.4,24.6l0.2,0v0H19.4z M19.7,20.3h0.2l0.1,0.1v0c-0.1,0-0.2,0.1-0.2,0.2l0,0v0l0,0h-0.2v0c0-0.2,0.1-0.2,0.3-0.2v0L19.7,20.3z
		 M19.5,20.9L19.5,20.9L19.5,20.9h0.2v0.1l-0.2,0L19.5,20.9L19.5,20.9L19.5,20.9z M19.6,23.2h0.2v0.1L19.6,23.2l-0.2,0.1v-0.1
		L19.6,23.2z M19.5,21.9L19.5,21.9L19.5,21.9L19.5,21.9L19.5,21.9z M19.5,29.6L19.5,29.6L19.5,29.6L19.5,29.6z M19.8,21v0.1
		c0,0.1-0.1,0.2-0.3,0.2h0l0,0c0,0,0.1-0.1,0.2-0.1l0,0L19.8,21L19.8,21l-0.2,0.1V21L19.8,21z M19.5,22.7L19.5,22.7L19.5,22.7
		L19.5,22.7z M19.8,23.5L19.8,23.5c0,0.1-0.1,0.1-0.2,0.2l0,0v0L19.8,23.5z M19.7,21.5h0.1H19.7L19.7,21.5L19.7,21.5z M20.9,21.8
		L20.9,21.8L20.9,21.8c0.1,0.1,0.2,0.1,0.2,0.2L21,22h0.1v0.1L21,22.2v0l0,0h0.1c0,0.2-0.1,0.3-0.3,0.3v0c0.1,0,0.1,0,0.1,0.1
		l-0.1,0.1h0c0.1-0.1,0.3-0.2,0.4-0.2l0,0.1l0,0.1l0.1,0.1l-0.1,0.1v-0.1h0l0,0h0l0,0V23L21,23v-0.1c-0.1,0-0.2,0-0.2,0.1L20.7,23
		v-0.1h0.1v-0.1l-0.4,0.4c-0.1,0.1-0.3,0.1-0.4,0.1h-0.1v0c0-0.1,0.1-0.1,0.2-0.1v-0.1L20,23l-0.3,0.1l0,0c0.1-0.1,0.1-0.2,0.2-0.2
		c0-0.1,0-0.2,0.1-0.2l0.1,0.1l0.1-0.1l0.1,0v0l0-0.1h0l-0.2,0v0l0.6-0.3v0.2l0.1,0.1l0.1-0.2h0l0,0h0v-0.1l-0.1-0.2
		C20.8,21.9,20.9,21.8,20.9,21.8z M19.8,20L19.8,20L19.8,20L19.8,20z M19.8,21.6L19.8,21.6l-0.1,0.1L19.8,21.6L19.8,21.6z
		 M19.8,22.4L19.8,22.4L19.8,22.4L19.8,22.4L19.8,22.4z M19.7,23.7v0.1h0.1L19.7,23.7L19.7,23.7z M19.9,21.4L19.9,21.4L19.9,21.4
		L19.9,21.4L19.9,21.4z M19.8,24.3L19.8,24.3L19.8,24.3L19.8,24.3L19.8,24.3z M19.8,29.8L19.8,29.8L19.8,29.8L19.8,29.8z M20,21
		L20,21L20,21h0.1h0l0.1,0.1v0l0,0h-0.1c0,0.1-0.1,0.1-0.2,0.2h0l-0.1-0.1C19.9,21.1,19.9,21,20,21z M19.9,19.2L19.9,19.2L19.9,19.2
		L19.9,19.2L19.9,19.2z M19.9,20.8L19.9,20.8L19.9,20.8L19.9,20.8L19.9,20.8z M19.9,19.9L19.9,19.9L19.9,19.9L19.9,19.9L19.9,19.9z
		 M20,20.5L20,20.5l0,0.1h-0.1L20,20.5L20,20.5z M19.9,23.9L19.9,23.9L19.9,23.9L19.9,23.9L19.9,23.9z M20,19.3L20,19.3L20,19.3
		L20,19.3L20,19.3z M20,21.7L20,21.7l0,0.1H20L20,21.7z M20,24L20,24L20,24L20,24L20,24z M20.1,19.3L20.1,19.3L20.1,19.3L20.1,19.3
		L20.1,19.3z M20.3,20.1l0.1,0.1v0h-0.1L20.3,20.1L20.3,20.1c0,0.2,0,0.3-0.1,0.3h-0.1v-0.1l0.1-0.1l0,0h0
		C20.3,20.2,20.3,20.1,20.3,20.1z M20.2,30.3L20.2,30.3L20.2,30.3h0.1l0.1,0.1l-0.1,0.1L20.2,30.3L20.2,30.3L20.2,30.3z M20.3,20.6
		L20.3,20.6L20.3,20.6l0,0.2l0,0L20.3,20.6L20.3,20.6z M20.4,22.8c0,0.1-0.1,0.1-0.2,0.1l0,0.1l0,0h0c0.1-0.1,0.2-0.1,0.2-0.1
		L20.4,22.8z M20.3,21.6L20.3,21.6L20.3,21.6L20.3,21.6L20.3,21.6z M20.3,18.7L20.3,18.7L20.3,18.7L20.3,18.7z M20.3,22.7L20.3,22.7
		L20.3,22.7L20.3,22.7L20.3,22.7z M20.5,19.8L20.5,19.8L20.5,19.8v0.1h-0.1v-0.1L20.5,19.8z M20.3,20.5L20.3,20.5L20.3,20.5
		L20.3,20.5z M20.3,24.3L20.3,24.3l0.2,0.1l0.2,0v0H20.3z M20.4,22.5L20.4,22.5L20.4,22.5L20.4,22.5L20.4,22.5z M20.5,18L20.5,18
		L20.5,18L20.5,18z M20.4,25.2L20.4,25.2L20.4,25.2L20.4,25.2L20.4,25.2z M20.5,16.6L20.5,16.6L20.5,16.6v0.1h0L20.5,16.6L20.5,16.6
		L20.5,16.6L20.5,16.6z M20.5,19.3l0,0.2h0V19.3L20.5,19.3z M20.5,20.6L20.5,20.6L20.5,20.6L20.5,20.6L20.5,20.6z M20.5,21.5
		L20.5,21.5l0.2,0.1l-0.2,0.2l0,0l0,0L20.5,21.5L20.5,21.5L20.5,21.5z M20.5,22.7L20.5,22.7l0.1,0l0.1-0.1l0,0L20.5,22.7L20.5,22.7z
		 M20.5,23.2h0.1H20.5L20.5,23.2L20.5,23.2z M20.5,19.1h0.1l0,0.2l0,0h-0.1L20.5,19.1z M20.6,20.1L20.6,20.1l0,0.1L20.6,20.1
		L20.6,20.1z M20.7,17.5L20.7,17.5L20.7,17.5v0.1h0L20.7,17.5L20.7,17.5L20.7,17.5L20.7,17.5z M20.7,24.9c0,0.1,0,0.2-0.1,0.2l0,0.1
		l0.3-0.2c0-0.1,0-0.2,0.1-0.2v0h-0.1v0L20.7,24.9L20.7,24.9z M20.7,18.4L20.7,18.4l0.2,0.1v0.1c-0.1,0-0.1,0.1-0.2,0.2h0l0,0v-0.1
		C20.7,18.6,20.7,18.5,20.7,18.4z M20.8,19l0.1,0.1h0V19h0.1v0c-0.1,0.1-0.1,0.2-0.1,0.2h-0.2l0-0.2L20.8,19L20.8,19z M20.7,24
		L20.7,24L20.7,24L20.7,24L20.7,24z M20.7,19.5L20.7,19.5L20.7,19.5L20.7,19.5L20.7,19.5z M20.8,18.2L20.8,18.2L20.8,18.2L20.8,18.2
		L20.8,18.2z M20.8,19.2L20.8,19.2L20.8,19.2L20.8,19.2z M20.9,21.4v0.1l-0.1,0v0L20.9,21.4z M20.8,22.9L20.8,22.9L20.8,22.9
		L20.8,22.9z M21,17.5L21,17.5L21,17.5h0.1v0c0,0.1-0.1,0.2-0.3,0.2v0C20.9,17.6,21,17.5,21,17.5z M20.9,18.6l0.2,0v0L21,18.7
		L20.9,18.6L20.9,18.6z M20.9,21.2L20.9,21.2L20.9,21.2L20.9,21.2L20.9,21.2z M20.9,21.3L20.9,21.3L20.9,21.3L20.9,21.3L20.9,21.3z
		 M21.1,18.8L21.1,18.8L21,18.9l0,0v0L21.1,18.8L21.1,18.8z M21.1,23.1h0.2v0.1h0l0,0L21,23.3l0,0v0L21.1,23.1z M21.1,23.9
		L21.1,23.9L21.1,23.9L21.1,23.9L21.1,23.9z M21.3,16.7l0.2,0.1v0c-0.1,0-0.1,0.1-0.1,0.2l-0.2,0l0,0v0l0.1-0.1l-0.1-0.1l0,0H21.3z
		 M21.1,21L21.1,21L21.1,21L21.1,21L21.1,21z M21.3,21.1L21.3,21.1c0,0.1,0,0.2-0.1,0.2h-0.1l0-0.1l0,0h0L21.3,21.1L21.3,21.1z
		 M21.3,21.4L21.3,21.4l0,0.1h-0.2L21.3,21.4z M21.2,20.4L21.2,20.4L21.2,20.4L21.2,20.4L21.2,20.4z M21.2,17.6L21.2,17.6L21.2,17.6
		L21.2,17.6L21.2,17.6z M21.2,23.4L21.2,23.4L21.2,23.4L21.2,23.4L21.2,23.4z M21.3,21.6L21.3,21.6L21.3,21.6L21.3,21.6L21.3,21.6z
		 M21.3,21.9V22h-0.1L21.3,21.9L21.3,21.9z M21.4,17.5L21.4,17.5l0,0.1h-0.1L21.4,17.5L21.4,17.5z M21.3,18.2L21.3,18.2l0.1-0.1
		L21.3,18.2L21.3,18.2z M21.4,19.1l0,0.2h0.1l0.1-0.1v0L21.5,19L21.4,19.1z M21.5,29.6l0,0.2l0,0h0l0,0L21.5,29.6L21.5,29.6z
		 M21.7,17.6l-0.1,0.1v0c0.1,0,0.2,0.1,0.2,0.2h0l0,0h0C21.9,17.8,21.8,17.7,21.7,17.6z M21.6,18.2L21.6,18.2L21.6,18.2L21.6,18.2
		L21.6,18.2z M21.7,18.9l0,0.2h0.1L21.7,18.9L21.7,18.9z M21.7,18.3L21.7,18.3L21.7,18.3L21.7,18.3z M21.9,18.3v0.2h0.1v0L21.9,18.3
		L21.9,18.3z M21.9,20.5c0.4,0,0.7,0.1,0.9,0.2l0,0v0.1l0.1-0.1l0.3,0.3l0,0h-0.3v0c0,0.1,0,0.1,0.1,0.1l0,0h0l0,0h0l0.2,0l0.3,0.6
		l0,0v0c0.1,0,0.1,0.1,0.2,0.4l-0.1,0.1c0.1,0,0.1,0.1,0.1,0.3v0.4c-0.1,0.1-0.1,0.2-0.2,0.2v0.1h0.1c0-0.1,0-0.1,0.1-0.1l0,0v0.1
		c0,0.6-0.1,0.8-0.2,0.8h-0.2l0,0h0l0,0v0.1h0.2l0.1,0.1l-0.4,0v0c0.1,0,0.2,0,0.3,0.1c-0.2,0.6-0.6,0.9-1,1.1l-0.2,0
		c0-0.1,0-0.1-0.1-0.1l0,0c-0.3,0-0.4-0.1-0.4-0.1v-0.1l0,0l0,0v-0.9l0.1-0.1c0.2,0.1,0.3,0.2,0.3,0.3l-0.1,0.1v0
		c0,0.1,0,0.2,0.1,0.3l0,0v0l0,0.1h0l0.4-0.1c0-0.1,0.1-0.2,0.3-0.3c0-0.1,0-0.2,0.1-0.3v-0.1l0,0v0c0,0,0.1-0.1,0.1-0.3h0l-0.1-0.2
		l0.1,0l0,0v0l0-0.4l-0.1-0.1l0,0v0L23.1,23l0-0.2l0-0.1l0,0c0,0-0.1-0.1-0.2-0.3l0,0v0c-0.1,0-0.2,0-0.2-0.1l0-0.2h-0.2v0l0,0v0
		c-0.2-0.1-0.3-0.2-0.3-0.3l0,0h-0.2c-0.1,0-0.1,0-0.1-0.1H22c0,0.1,0,0.2-0.1,0.2h0l0-0.2l0,0l0,0l0.2,0.1v-0.2
		c-0.1,0-0.2,0-0.2-0.1L21.9,20.5L21.9,20.5z M22,21.8L22,21.8L22,21.8L22,21.8c0.1,0.1,0,0.1,0,0.1l0.1,0.1l-0.1,0.1h-0.1v-0.3
		L22,21.8z M21.9,22.3L21.9,22.3L21.9,22.3L21.9,22.3L21.9,22.3z M22,22.4l0,0.1c-0.1,0-0.1,0.1-0.1,0.2l-0.1-0.1v0
		C21.9,22.5,21.9,22.4,22,22.4z M21.9,23.3c0.1,0,0.1,0.1,0.1,0.2l-0.1,0.1l-0.1-0.1L21.9,23.3L21.9,23.3z M21.9,23.8h0.2l0,0v0h0.1
		V24H22v0l0.1,0.1v0h-0.2V23.8z M21.9,19.8L21.9,19.8l0,0.1H22L21.9,19.8L21.9,19.8z M22,18.1L22,18.1l0.1,0.1h0L22,18.1z M22,19
		L22,19L22,19L22,19L22,19z M22.1,17.8L22.1,17.8L22.1,17.8L22.1,17.8L22.1,17.8z M22.1,19.3L22.1,19.3l0.1,0.1l0.1-0.1v0H22.1z
		 M22.1,18L22.1,18L22.1,18L22.1,18z M22.2,16.9L22.2,16.9L22.2,16.9L22.2,16.9z M22.3,20L22.3,20l0.1-0.1L22.3,20L22.3,20z
		 M22.4,18.2L22.4,18.2L22.4,18.2L22.4,18.2L22.4,18.2z M22.5,19.6L22.5,19.6L22.5,19.6l0,0.2C22.5,19.8,22.5,19.7,22.5,19.6l0.1,0
		v-0.1L22.5,19.6z M22.7,19.6L22.7,19.6L22.7,19.6L22.7,19.6L22.7,19.6z M22.9,19.6L22.9,19.6l0.2,0v0H22.9z M22.9,19.7L22.9,19.7
		L22.9,19.7H23l0,0L22.9,19.7z M23,29.9L23,29.9L23,29.9L23,29.9L23,29.9z M23.3,19.9L23.3,19.9L23.3,19.9L23.3,19.9L23.3,19.9z
		 M23.5,22.9L23.5,22.9l0.2,0v-0.1C23.5,22.8,23.5,22.8,23.5,22.9z M23.7,20.5L23.7,20.5L23.7,20.5L23.7,20.5L23.7,20.5z M23.9,19.8
		L23.9,19.8L23.9,19.8L23.9,19.8L23.9,19.8z M24.2,21.1L24.2,21.1L24.2,21.1L24.2,21.1L24.2,21.1z M24.4,22.8L24.4,22.8L24.4,22.8
		L24.4,22.8L24.4,22.8z M29,31.1L29,31.1L29,31.1L29,31.1L29,31.1z"/>
	<path d="M28.9,28.7v0.1h0l-0.1-0.1L28.9,28.7L28.9,28.7z M29.7,29L29.7,29L29.7,29l-0.8,0.3v-0.1C28.9,29.1,29.1,29.1,29.7,29z
		 M30.5,18.7h0.4c-0.1,0.1-0.3,0.5-0.6,1.2l0,0v0c-0.1,0.3-0.2,0.6-0.2,1c0,1.3,0.5,2.3,1.6,3h0.1l0,0v0l1,0.4v0.1
		c-2,0.3-3,0.5-3,0.6l-0.2,0.4c0.2,0.9,0.6,1.6,1.2,2.2c0-0.1,0-0.2,0.1-0.2h0l0,0.2l0,0.2l0.7,0.6h0l0.1-0.1v0l-0.1,0.1
		c1,0.6,2.1,0.9,3.3,0.9h0.2l1-0.1l0.1,0c0,0,0.4-0.1,1.2-0.3c0.7-0.3,1.4-0.7,2-1.2c0.3-0.3,0.6-0.6,0.8-1.1c0,0.1,0,0.1,0.1,0.1v0
		l-0.1-0.1c0.2-0.6,0.3-1.1,0.3-1.6c0-0.4-0.1-0.9-0.3-1.5v0l0.2,0v-0.1h-0.2c0,0.1,0,0.2-0.1,0.2l0,0v0l0,0v0
		c-0.1,0-0.2-0.2-0.4-0.5c0-0.1,0.1-0.1,0.2-0.1v0c0,0.1,0.1,0.2,0.4,0.2l0,0v0.1c0,0.1-0.1,0.1-0.2,0.1v0c0.2,0,0.3,0.2,0.4,0.5
		l0.1,0.1l0,0l0,0.2v0.1l0,0l0.1,0.3h0L41,25l-0.1,0.2c0.1,0,0.2,0,0.2,0.1l-0.1,0l0.1,0.1l0,0.2l0,0.2c-0.2,0.2-0.3,0.5-0.3,0.6
		l0,0.1c-0.1,0-0.1,0.1-0.1,0.2l-0.4,0.5l0.1,0.2l0,0c-0.1,0-0.1-0.1-0.1-0.2h0l-0.1,0.4c0.1,0,0.2,0.1,0.2,0.1v0h0l0,0h0
		c0,0.1,0,0.2-0.1,0.2c-0.1,0-0.1,0-0.1-0.1h0l0,0.2h0.1v0l-0.3,0.3l-0.1-0.1c-0.1,0.2-0.1,0.4-0.2,0.4h0v-0.1h0l0,0.1l0.1,0.2
		c0,0.1-0.1,0.2-0.2,0.3H39L38.9,29h0l-0.1-0.2l0.1-0.1v-0.1h-0.1c0,0.1-0.1,0.2-0.2,0.2c0,0.2-0.1,0.2-0.2,0.2l-0.4,0v0
		c0,0.1-0.1,0.1-0.2,0.1v0H38l0.5-0.1h0.1l0,0l0.2-0.1l0.2,0v0.1l-0.5,0.4h-0.2v0c0-0.1,0-0.1,0.1-0.1v-0.1l0,0h0l-0.2,0l0.1-0.1
		l-0.2,0v0l0.1,0.2c-0.1,0-0.1,0.1-0.1,0.2l0,0h-0.1v-0.1l0.2,0c0,0-0.1-0.1-0.2-0.1l-0.1,0.1c-0.1,0-0.2,0-0.2-0.1h-0.1
		c-0.2,0.1-0.3,0.2-0.4,0.2l0,0v0c0.3-0.1,0.4-0.2,0.4-0.3h0c-0.2,0.1-0.3,0.2-0.5,0.4l-0.1,0l-0.1-0.1h-0.1c0,0.1,0,0.2-0.1,0.2
		l0,0v0h0l0.2,0l0,0v0l-0.1,0.2h-0.1l0,0h0c0,0.1-0.1,0.2-0.2,0.2l0,0V30l0.1-0.1V30h0.1v0c-0.1,0-0.2-0.1-0.2-0.2
		c0.1-0.1,0.2-0.1,0.2-0.2l-1,0.2c0-0.1,0-0.1,0.1-0.1v0h-0.1c0,0.1-0.1,0.1-0.2,0.1V30h0l0.3-0.1V30l-0.1,0.1h-0.1V30h0l-0.2,0.2
		c-0.1,0-0.1-0.1-0.1-0.3l0.2-0.1H35c0,0.1,0,0.1-0.1,0.1h0c-0.1,0-0.1-0.1-0.1-0.2l-0.2,0l0,0v0.1l0,0h0v0.1c0.1,0,0.1,0,0.1,0.1
		h0.1v0.1l-0.2,0.2l-0.1-0.1c0,0.1-0.1,0.1-0.2,0.1c0,0.1-0.1,0.1-0.3,0.1v0.1c-0.2-0.1-0.3-0.2-0.3-0.2l-0.2,0.1l-0.1-0.2h-0.1
		l0,0.1h0.1v0.1H33c-0.1-0.1-0.3-0.2-0.7-0.3v0l0.1-0.1v0l-0.2,0.2l-0.1,0l0,0c0-0.1-0.2-0.1-0.6-0.3l0,0v0c0-0.1-0.1-0.1-0.3-0.1
		c-0.1-0.2-0.1-0.2-0.2-0.2L31,29.3c-0.1,0-0.1-0.1-0.1-0.2c-0.3-0.1-0.4-0.2-0.4-0.3h-0.1v-0.1h0.1v0l-0.5-0.5c0-0.1,0-0.2-0.1-0.2
		v0.1h-0.1v-0.1l0,0c0-0.1-0.1-0.2-0.2-0.3l0-0.1l0-0.2v0l0,0v0l0,0l-0.2-0.1l0,0h-0.1c-0.2-0.4-0.2-0.7-0.2-0.9v-0.2l0.1-0.1l0,0
		c0-0.1,0.1-0.2,0.2-0.3l0-0.4v-0.1c0.1,0,0.2-0.1,0.3-0.4l0.3-0.2l0.2,0c0.4-0.1,0.6-0.2,0.6-0.2c-0.4-0.4-0.6-0.7-0.6-0.9l0,0
		c0-0.1-0.1-0.1-0.2-0.1c-0.2-0.1-0.3-0.5-0.3-1.2V22c0-0.5,0-0.8,0.1-0.9l0,0v0l0,0v0l0,0v0c0.2-0.5,0.3-0.8,0.4-0.8H30l0,0
		l0.2-0.1h-0.1l0,0h0l-0.2-0.1C30,19.4,30.2,19.1,30.5,18.7z M29.4,17.6L29.4,17.6L29.4,17.6L29.4,17.6L29.4,17.6z M29.5,19.1
		L29.5,19.1L29.5,19.1L29.5,19.1L29.5,19.1z M29.7,18.4L29.7,18.4L29.7,18.4l0,0.1l0,0v0l0,0.2h-0.1v-0.2L29.7,18.4z M29.7,18.3
		L29.7,18.3L29.7,18.3L29.7,18.3L29.7,18.3z M29.7,18.5L29.7,18.5L29.7,18.5L29.7,18.5L29.7,18.5z M29.7,18.4L29.7,18.4L29.7,18.4
		L29.7,18.4L29.7,18.4z M29.8,17.1L29.8,17.1L29.8,17.1L29.8,17.1L29.8,17.1z M29.8,17.3L29.8,17.3L29.8,17.3L29.8,17.3L29.8,17.3z
		 M29.8,18.7L29.8,18.7L29.8,18.7L29.8,18.7z M29.8,28.7H30v0.1L29.8,28.7L29.8,28.7z M29.9,28.8L29.9,28.8l0,0.1h-0.2L29.9,28.8z
		 M29.9,17.9L29.9,17.9L29.9,17.9l0,0.2h0L29.9,17.9L29.9,17.9z M30,17.2L30,17.2L30,17.2l0.1,0L30,17.4l0.1,0.1v0H30v0l0.1,0.1v0
		L30,17.8l0-0.1l0-0.2l0-0.2L30,17.2z M30.2,24.6L30.2,24.6c0,0.1-0.1,0.1-0.3,0.2C29.9,24.7,30,24.7,30.2,24.6z M30,29.3L30,29.3
		L30,29.3L30,29.3L30,29.3z M30.2,28.8L30.2,28.8L30,28.9v-0.1L30.2,28.8z M35.8,16.3L35.8,16.3L35.8,16.3l0,0.2h0.7
		c0.1,0.1,0.3,0.2,0.6,0.2l0.1-0.1c0,0.1,0.2,0.1,0.5,0.2c0.1,0.1,0.2,0.2,0.3,0.2l0,0c0,0.1,0.1,0.1,0.2,0.1v0.1h0.2l0.4,0.4
		c0.2,0,0.5,0.3,0.9,0.8l-0.1,0.2l0,0h0l0.1-0.1c0.1,0.1,0.2,0.3,0.3,0.5c0.1,0,0.2,0,0.2,0.1l0,0l0.4,0.8l0,0l0,0v0.1l-0.1,0.1l0,0
		l-0.1,0.1v0c0.1,0,0.2,0,0.2,0.1c0,0-0.1,0.1-0.2,0.4l0,0.2l-0.1,0.2l0.1,0.1c-0.1,0-0.1,0.1-0.2,0.3c-0.2,0.1-0.5,0.2-1,0.3
		c0,0.1-0.1,0.1-0.2,0.1h0c-0.3-0.3-0.8-0.5-1.4-0.6v-0.1l1.2-0.3l0.2,0.2l0.2-0.1v0c-0.2,0-0.2,0-0.2-0.1v0l0.7-0.2l0,0l0.6-0.2
		c0-0.1,0.1-0.1,0.2-0.1v-0.1h-0.1v0c0.1-0.1,0.2-0.2,0.3-0.2v0l-0.2,0v0c0-0.1,0-0.1,0.1-0.1v0h0l-0.1,0l-0.5-0.9l0,0v0l0-0.2
		l-0.2,0c-0.2-0.4-0.7-0.8-1.2-1.2c-0.5-0.3-1.3-0.6-2.4-0.8l0,0l0,0v0.1h-0.1l0-0.2l0,0l-0.2,0h-0.1l0,0.1h0l0,0v0l-0.1,0.2
		c0.1,0,0.1,0.1,0.1,0.2h0l0,0l0.7,0.1l0,0c0,0,0.3,0.1,1,0.3c1,0.4,1.8,1,2.3,2l0.2,0.3l0,0.2l-0.1,0.1l0,0h0l0,0V20
		c0-0.1-0.1-0.1-0.2-0.1v0l0,0.2v0.1c0,0.1-0.8,0.3-2.3,0.8L37,21l-0.1-0.1c-0.1,0-0.2,0.1-0.2,0.1l0,0.2h-0.1L36.6,21v-0.1l0,0h0.1
		v0c-0.2,0-0.2-0.1-0.2-0.1v-0.1l0-0.4l-0.1,0v0.1h0l0,0l0,0.2v0.1h-0.1l0-0.3l-0.1,0c0,0.1,0.1,0.3,0.4,0.6v0h0l-1.1-0.2l0,0
		l-0.7-0.3l0-0.2c0.1-0.1,0.2-0.1,0.3-0.1h0.5l0,0v-0.1l0.1-0.1l0.1,0.2l0.6,0.2v-0.1l0,0l0,0h-0.1V20l-0.6-0.1h-0.5v0.2
		c-0.1,0-0.1,0-0.1-0.1l-0.1,0c-0.4,0.1-0.6,0.3-0.6,0.5v0.2c0,0.4,0.8,0.7,2.4,1c1.3,0.3,2.1,0.6,2.4,0.9v0l-0.4,0.1l0.1,0.1
		l0.3-0.1h0.2c0.3,0.2,0.6,0.6,0.8,1c-0.1,0-0.1,0-0.1,0.1l-0.1-0.1l-0.1,0.1l0,0l0,0h0l-0.2,0v0l0,0h-0.1l0,0v0l-0.1,0.1l0,0.1h0
		C39,24,39,24,38.9,24.2l0.2,0v0c0.1-0.1,0.3-0.2,0.4-0.3c0-0.1,0-0.1,0.1-0.1h0v0.1h0.2v-0.1h0.1l0.2,0.5h0l0.1,0.4v0.1l0,0v0
		c0.1,0,0.1,0,0.1,0.1c0,1.9-1,3.1-3,3.7c-0.6,0.2-1.3,0.3-2,0.3c-2.4,0-3.9-0.9-4.7-2.6c-0.2-0.4-0.3-0.7-0.3-0.9l3.2-0.6
		c0.2,0.6,0.6,1,1,1.2c0.4,0.1,0.7,0.2,1,0.2h0c0.8,0,1.2-0.2,1.2-0.6v-0.2c0-0.4-0.8-0.8-2.4-1c-0.8-0.2-1.5-0.5-2.1-0.8h-0.1v0
		l0,0v0c-0.9-0.6-1.4-1.5-1.4-2.5c0-1.6,0.8-2.7,2.5-3.4c0.5-0.2,0.8-0.2,1.1-0.2v0c-0.1,0-0.1,0-0.1-0.1l0.1-0.1l0.1,0.2h0.1
		c0.1,0,0.2-0.1,0.3-0.2v0.1l0,0v0H35v0c-0.1,0-0.1,0-0.1-0.1v0l0,0l0,0v-0.1H35c0,0.1,0.1,0.2,0.2,0.3h0.1v-0.1l0-0.2
		c0.1,0,0.1-0.1,0.2-0.2h0c-0.1,0-0.2,0-0.2,0.1L35,16.9v0L34.9,17l0-0.1l0,0h0l-0.1,0L34.4,17h-0.1l-0.2,0l0,0h0l0,0
		c-1,0.2-1.5,0.4-1.5,0.6h0l0-0.1c-0.5,0.2-0.8,0.4-0.8,0.6h0l0,0h0c-0.4,0.5-0.7,0.7-0.8,0.7l-0.1,0l-0.2-0.1
		c0-0.1,0.2-0.3,0.5-0.6c0-0.1,0.3-0.3,0.8-0.5l0,0v0l0,0h0l0.4-0.2c0-0.1,0.2-0.2,0.6-0.4l0.2,0c0-0.1,0.2-0.2,0.7-0.2h0l0.4-0.2v0
		l0.2,0c0.2,0,0.3,0,0.3-0.1l0.4,0.1v0l0,0v0h0l0.1,0l0,0C35.6,16.4,35.7,16.3,35.8,16.3z M30.2,28.6L30.2,28.6L30.2,28.6L30.2,28.6
		L30.2,28.6z M30.2,17L30.2,17l0.1,0.1l-0.1,0.1h-0.1v0L30.2,17z M30.3,17.3L30.3,17.3l-0.1,0.1l-0.1-0.1l0,0H30.3z M30.1,18.3
		L30.1,18.3L30.1,18.3L30.1,18.3L30.1,18.3z M30.2,16.6L30.2,16.6L30.2,16.6L30.2,16.6L30.2,16.6z M30.2,18.2L30.2,18.2L30.2,18.2
		L30.2,18.2L30.2,18.2z M30.5,17.8L30.5,17.8L30.5,17.8l-0.1,0.4h0l-0.1-0.1C30.3,18,30.3,17.9,30.5,17.8z M30.4,18.3L30.4,18.3
		l0,0.1h0V18.3L30.4,18.3L30.4,18.3z M30.3,16.9L30.3,16.9L30.3,16.9L30.3,16.9L30.3,16.9z M30.4,17.7v0.1h-0.1L30.4,17.7L30.4,17.7
		z M30.4,17.6L30.4,17.6L30.4,17.6L30.4,17.6L30.4,17.6z M30.4,17.5L30.4,17.5L30.4,17.5L30.4,17.5L30.4,17.5z M30.5,16.3L30.5,16.3
		L30.5,16.3L30.5,16.3z M30.8,16.6l0.1,0.1l0,0H31v0.1l-0.2,0l0,0v0L30.8,17l0.1,0.1v0.1c-0.1,0-0.2,0-0.2,0.1v0h0.1l-0.1,0.1v-0.1
		h0l-0.1,0.1v0l0,0l0,0v-0.1l0.1-0.1l0,0v0l-0.1-0.1l0.1,0l-0.2-0.2l0,0h0.1c0,0.1,0,0.1,0.1,0.1h0v0l-0.1-0.1L30.8,16.6z
		 M30.5,16.7L30.5,16.7L30.5,16.7L30.5,16.7L30.5,16.7z M30.7,17.5v0.2l-0.1,0L30.7,17.5z M30.6,17.7L30.6,17.7l-0.1,0.1L30.6,17.7
		L30.6,17.7z M30.8,17.7L30.8,17.7L30.8,17.7L30.8,17.7L30.8,17.7z M30.8,27.4L30.8,27.4L30.8,27.4L30.8,27.4L30.8,27.4z M31,16.3
		l0,0.3h-0.1v0l0,0l-0.1-0.2l0,0H31z M31,16L31,16L31,16L31,16L31,16z M31.2,17.1L31.2,17.1l-0.1,0.3v0c0.1,0,0.1,0,0.1-0.1l0,0h0
		v0.1c0,0.1-0.1,0.3-0.3,0.6v0l0.2-0.5L31,17.4C31.1,17.2,31.1,17.1,31.2,17.1z M31.2,16.5L31.2,16.5l-0.1,0.2l0,0v0L31.2,16.5z
		 M31.5,16l0.2,0.1l0.1-0.1l0.1,0.1l-0.3,0.1v0l0.2,0.3l0,0l0,0h-0.1l0,0v0.1h-0.1v0.1c0.1,0,0.1,0,0.1,0.1l0,0l0,0v0.1l-0.2-0.1
		c0,0.1,0,0.1-0.1,0.1V17c-0.1,0-0.1,0-0.1-0.1v0l0,0v0l0,0h0.1l-0.1-0.1v0l0.2,0l0,0v-0.1l0,0h0l-0.1-0.1c0.2-0.1,0.3-0.1,0.3-0.2
		l-0.2-0.2l0,0v-0.1l0.1,0l0.1,0.1L31.5,16z M31.3,15.7L31.3,15.7L31.3,15.7L31.3,15.7L31.3,15.7z M31.4,17.1L31.4,17.1L31.4,17.1
		l0,0.1h0L31.4,17.1L31.4,17.1z M31.6,16.7L31.6,16.7l0,0.1h0V16.7L31.6,16.7L31.6,16.7z M31.8,15.7L31.8,15.7L31.8,15.7v0.1h-0.2
		v-0.1L31.8,15.7z M31.7,18.1L31.7,18.1L31.7,18.1L31.7,18.1L31.7,18.1z M31.8,16.3L31.8,16.3l0.2,0.2l0,0h0L31.8,16.3z M31.8,28.6
		L31.8,28.6L31.8,28.6L31.8,28.6L31.8,28.6z M32,16.3L32,16.3c0.1,0,0.2,0.1,0.2,0.2l0,0h0l0,0l0,0v0L32,16.3L32,16.3z M32,23.9
		L32,23.9L32,23.9L32,23.9L32,23.9z M32,16.8L32,16.8l0.2,0.1v0h-0.1L32,16.8L32,16.8z M32.2,15.5l0.1,0.1l0,0l0,0h-0.1V15.5
		L32.2,15.5L32.2,15.5z M32.2,15.9l0.1,0.1l0,0l0,0h-0.1V15.9L32.2,15.9L32.2,15.9z M32.3,16.3L32.3,16.3L32.3,16.3l0,0.1h0
		L32.3,16.3L32.3,16.3z M32.4,16.5L32.4,16.5l0.1,0.1h-0.1c0,0.1,0,0.1-0.1,0.1l0,0v0h0.1v0L32.4,16.5L32.4,16.5L32.4,16.5
		L32.4,16.5z M32.5,17.7v0.1h-0.1L32.5,17.7L32.5,17.7z M32.5,28.8L32.5,28.8L32.5,28.8L32.5,28.8L32.5,28.8z M32.5,17.6L32.5,17.6
		L32.5,17.6L32.5,17.6L32.5,17.6z M32.6,16.1L32.6,16.1L32.6,16.1L32.6,16.1L32.6,16.1z M32.8,16.3L32.8,16.3L32.8,16.3v0.1l0.1,0.1
		v0.1l0,0v0l0.1,0.1v0h-0.1l0,0h0l0-0.2v0V16.3l-0.1,0.1l-0.1,0.1v0C32.6,16.3,32.7,16.3,32.8,16.3z M32.7,30L32.7,30L32.7,30
		L32.7,30L32.7,30z M32.8,16.1L32.8,16.1L32.8,16.1L32.8,16.1L32.8,16.1z M32.9,30L32.9,30L32.9,30L32.9,30L32.9,30z M33,15.3
		L33,15.3L33,15.3L33,15.3L33,15.3z M33,15.6L33,15.6L33,15.6l0,0.2h0L33,15.6L33,15.6z M33,16L33,16L33,16L33,16L33,16z M33,16.3
		h0.1v0.1L33,16.3L33,16.3z M33.2,30v0.1h0L33.2,30L33.2,30z M33.6,16.1l0.1,0.1l0,0l0,0h0L33.6,16.1L33.6,16.1z M33.6,17.3
		L33.6,17.3L33.6,17.3L33.6,17.3L33.6,17.3z M33.8,29.9L33.8,29.9L33.8,29.9L33.8,29.9L33.8,29.9z M33.8,24.9
		c1.6,0.3,2.4,0.5,2.4,0.7c-0.1,0.2-0.3,0.2-0.6,0.2C34.5,25.9,34,25.6,33.8,24.9z M34,29.8c0.1,0,0.1,0,0.1,0.1v0.2h0
		c0.1,0,0.1-0.1,0.1-0.2c0-0.1-0.1-0.2-0.1-0.2L34,29.8L34,29.8z M34.2,15.7L34.2,15.7L34.2,15.7L34.2,15.7L34.2,15.7z M34.4,16.2
		L34.4,16.2L34.4,16.2L34.4,16.2L34.4,16.2z M34.4,17.1L34.4,17.1L34.4,17.1v0.1h0L34.4,17.1L34.4,17.1L34.4,17.1L34.4,17.1z
		 M34.4,30L34.4,30L34.4,30L34.4,30L34.4,30z M34.6,15.3L34.6,15.3L34.6,15.3L34.6,15.3L34.6,15.3z M34.6,16.3L34.6,16.3L34.6,16.3
		L34.6,16.3L34.6,16.3z M34.8,15.6L34.8,15.6L34.8,15.6L34.8,15.6l0.2,0.2v0h-0.1l-0.1-0.1L34.8,15.6z M34.8,16L34.8,16l0,0.2h-0.1
		v-0.1L34.8,16z M34.8,17.1L34.8,17.1l-0.1,0.1L34.8,17.1L34.8,17.1z M34.8,17L34.8,17L34.8,17L34.8,17L34.8,17z M35.1,15.3
		L35.1,15.3l-0.2,0.1v0L35.1,15.3z M35,15.6L35,15.6L35,15.6v0.1h0L35,15.6L35,15.6L35,15.6L35,15.6z M35.2,16L35.2,16l0.1,0.2l0,0
		h-0.2v-0.1h0.1L35.2,16L35.2,16L35.2,16z M35.3,30.2L35.3,30.2l0,0.1c0,0-0.1,0.1-0.2,0.1l0,0v0l0,0h0l0,0
		C35.2,30.2,35.2,30.2,35.3,30.2z M35.1,17L35.1,17L35.1,17L35.1,17z M35.1,17.1L35.1,17.1L35.1,17.1L35.1,17.1z M35.2,16.3
		L35.2,16.3L35.2,16.3L35.2,16.3L35.2,16.3z M35.2,29.9L35.2,29.9L35.2,29.9L35.2,29.9z M35.4,15.3L35.4,15.3L35.4,15.3L35.4,15.3
		L35.4,15.3z M35.4,16.3v0.1h-0.1L35.4,16.3L35.4,16.3z M35.4,15.1L35.4,15.1c0.1,0,0.1,0.1,0.2,0.2h-0.1L35.4,15.1L35.4,15.1z
		 M35.4,17.3L35.4,17.3L35.4,17.3L35.4,17.3L35.4,17.3z M35.6,15.6c0,0.1,0,0.1,0.1,0.1v0.1h-0.1l-0.1-0.1L35.6,15.6z M35.5,30.4
		L35.5,30.4L35.5,30.4L35.5,30.4L35.5,30.4z M35.7,15.8L35.7,15.8c0,0.1,0.1,0.2,0.2,0.2v0.1h-0.1L35.6,16v0L35.7,15.8L35.7,15.8
		L35.7,15.8z M36,29.7L36,29.7l0,0.1c0,0.1-0.1,0.1-0.2,0.1V30c0.1,0,0.2,0,0.2,0.1v0.1h0l-0.1-0.1h0v0h0.1v0l0,0v0
		c-0.2,0-0.3-0.1-0.3-0.1C35.7,30.1,35.8,30,36,29.7L36,29.7L36,29.7z M35.8,15.3L35.8,15.3l0.1,0.1l0,0h0L35.8,15.3L35.8,15.3z
		 M35.8,21.4L35.8,21.4L35.8,21.4L35.8,21.4L35.8,21.4z M35.9,15.7H36v0.1L35.9,15.7L35.9,15.7z M36,20l0,0.3h0L36,20L36,20z
		 M36.1,16.1L36.1,16.1c0.1,0,0.1,0.1,0.2,0.2h-0.1L36.1,16.1L36.1,16.1z M36.1,29.8L36.1,29.8L36.1,29.8L36.1,29.8L36.1,29.8z
		 M36.2,20.1L36.2,20.1L36.2,20.1v0.2h0l0.2-0.2v0L36.2,20.1z M36.2,15.1L36.2,15.1c0.1,0,0.1,0.1,0.2,0.2l0,0h0L36.2,15.1z
		 M36.2,17.1L36.2,17.1L36.2,17.1L36.2,17.1L36.2,17.1z M36.4,15.5L36.4,15.5l0.2,0.2h0L36.4,15.5L36.4,15.5z M36.4,20.8L36.4,20.8
		L36.4,20.8L36.4,20.8z M36.4,15.7L36.4,15.7L36.4,15.7L36.4,15.7L36.4,15.7z M37.7,29.7l0.1,0.1v0.1l0,0v0l0,0h-0.1L37.5,30h0v-0.1
		L37.4,30l0,0h0L37.1,30v0l0,0v0h0l-0.2,0.3l-0.1-0.1l-0.1,0.1h0c0.2-0.3,0.4-0.4,0.5-0.4l0.2,0l0,0h0l0.2,0h0c0,0.1,0,0.1,0.1,0.1
		c0.1,0,0.1,0,0.1-0.1L37.7,29.7L37.7,29.7z M36.6,20.4L36.6,20.4L36.6,20.4c0,0.3,0,0.4,0.2,0.5l0.1-0.1
		C36.8,20.7,36.7,20.5,36.6,20.4z M37.2,15.3L37.2,15.3L37.2,15.3L37.2,15.3L37.2,15.3z M37.5,19.2l0,0.1h0l0-0.1H37.5z M37.6,29.2
		L37.6,29.2l0,0.1l0.2,0v0L37.6,29.2z M37.9,22.4L37.9,22.4l0.1,0v0H37.9z M37.9,29.4L37.9,29.4L37.9,29.4L37.9,29.4z M38.5,20.3
		c-0.1,0.1-0.3,0.2-0.5,0.2l0.1,0.1c0.1,0,0.2,0,0.2-0.1l0,0h0c0.1-0.1,0.3-0.1,0.4-0.1v0H38.5z M38.1,21.3L38.1,21.3L38.1,21.3
		l0.2,0v0H38.1z M38.1,22.9L38.1,22.9L38.1,22.9L38.1,22.9z M38.2,19.2L38.2,19.2L38.2,19.2L38.2,19.2L38.2,19.2z M38.3,22.9
		L38.3,22.9l0.1,0v0H38.3z M38.5,19.7c0,0.1,0,0.1-0.1,0.1v0h0.1L38.5,19.7v0.1l0,0v0.1h0c0-0.1,0.1-0.2,0.2-0.2v0h-0.1H38.5
		L38.5,19.7z M38.3,23.4L38.3,23.4l0.1,0v0H38.3z M38.5,18.6L38.5,18.6L38.5,18.6L38.5,18.6L38.5,18.6z M38.5,29.4L38.5,29.4
		L38.5,29.4L38.5,29.4L38.5,29.4z M38.7,21.1l-0.1,0.1v0l0,0h0l0,0h0l0,0v0L38.7,21.1z M38.7,23.5L38.7,23.5L38.7,23.5L38.7,23.5
		L38.7,23.5z M38.8,19.7L38.8,19.7L38.8,19.7L38.8,19.7L38.8,19.7z M38.8,21.6L38.8,21.6l0,0.1l0.2-0.1v0H38.8z M38.8,24L38.8,24
		L38.8,24L38.8,24L38.8,24z M38.9,23.2L38.9,23.2H39H38.9z M38.9,20.2L38.9,20.2L38.9,20.2L38.9,20.2L38.9,20.2z M38.9,23.9
		L38.9,23.9L38.9,23.9L38.9,23.9L38.9,23.9z M39,19.6l0,0.1h0l0.1-0.2L39,19.6L39,19.6L39,19.6z M39.1,23.2L39.1,23.2l0.2,0
		c0-0.1,0.1-0.1,0.2-0.1v0h-0.2L39.1,23.2z M39.1,28.6L39.1,28.6L39.1,28.6L39.1,28.6L39.1,28.6z M39.1,28.8L39.1,28.8L39.1,28.8
		L39.1,28.8L39.1,28.8z M39.2,21L39.2,21L39.2,21L39.2,21L39.2,21z M39.6,21.9V22c0,0.1,0,0.1-0.1,0.1v0h0.2l0,0h0
		c0.1,0.3,0.2,0.5,0.4,0.5v0.1l-0.3,0.1l-0.3-0.3l0.1,0l0,0v0l0,0v0l-0.2,0v0.1h0.1v0.1h-0.1l-0.3-0.2l0-0.2h0l0,0h0
		C39.3,22,39.4,21.9,39.6,21.9z M39.2,19.8L39.2,19.8l0.2,0v0H39.2z M39.3,20.1L39.3,20.1L39.3,20.1L39.3,20.1L39.3,20.1z M39.3,21
		L39.3,21L39.3,21L39.3,21L39.3,21z M39.8,20.8l-0.1,0.1h0.1V20.8L39.8,20.8z M39.7,24.3L39.7,24.3L39.7,24.3L39.7,24.3L39.7,24.3z
		 M40.2,19.4L40.2,19.4L40.2,19.4L40.2,19.4L40.2,19.4z M40.2,23.2L40.2,23.2L40.2,23.2L40.2,23.2L40.2,23.2z M40.2,27.5L40.2,27.5
		L40.2,27.5L40.2,27.5L40.2,27.5z M40.3,20.7L40.3,20.7L40.3,20.7L40.3,20.7z M40.4,19.8L40.4,19.8L40.4,19.8L40.4,19.8L40.4,19.8z
		 M40.7,26.4L40.7,26.4L40.7,26.4L40.7,26.4L40.7,26.4z"/>
	<path d="M40.3,22.4L40.3,22.4l0.1,0.2l0,0.2h-0.1L40.3,22.4L40.3,22.4L40.3,22.4z M40.7,18.8L40.7,18.8L40.7,18.8L40.7,18.8
		L40.7,18.8z M40.7,19.1L40.7,19.1L40.7,19.1L40.7,19.1L40.7,19.1z M40.9,28.4L40.9,28.4l0,0.2h-0.1v0L40.9,28.4z M47,16.6L47,16.6
		l0.4,0.1l0.2,0l0,0h0l0.2,0l0,0v0l0.2,0l1-0.1l0,0v0l0.4-0.1l0.1,0.1l0.4,0c0.6,0,0.9,0.3,1,1v0.2l0,0h0v0.2l0.2,0.2
		c-0.1,1.4-0.2,2.3-0.2,2.5c-0.1,0-0.1,0.1-0.1,0.2c-0.1,0-0.2,0.1-0.2,0.2l0,0h-0.1v0l0.1,0.1h0l0.1,0v0.1c0,0.1-0.1,0.1-0.2,0.1v0
		h0.2v0.1c-0.1,0-0.2,0.1-0.2,0.1l0,0c-0.2,0.2-0.5,0.2-0.7,0.2l0,0.1l0,0.1l0,0c0.1,0,0.1,0,0.1,0.1l-0.1,0l0.1,0.2h-0.1l0.1,0.2
		v0.2c0,0.1,0,0.2-0.1,0.3l0,0h-0.1l-0.1,0.2c0.2,0,0.3,0.1,0.3,0.1l0,0.2l0,0.1h0l0,0v0.1l0,0l0,0c0,0.6-0.1,1-0.3,1.2
		c0,0.5-0.2,0.8-0.6,0.9l-0.2,0.1l-0.5,0l-0.6,0.1l0,0h0l-0.3,0.1l-0.9-0.1l-0.2,0l0,0v0l0,0h0l-0.1,0.1v-0.1l0,0v0
		c-0.1,0-0.1-0.1-0.1-0.2h-0.2v-0.2h0.1v-0.1c-0.1,0-0.1-0.1-0.1-0.2l0.6-0.1l0.1,0.2h-0.1v0h0.4c0-0.2,0.1-0.3,0.2-0.3l0,0l0.2,0
		h0.2l0.2,0l0.1-0.1l0.4,0h0.1l0,0.2l-0.2,0.1v0h0c0.1-0.1,0.2-0.1,0.3-0.2v0l0,0h0v-0.1l0.2,0c0,0.1,0.1,0.2,0.2,0.2v0.1h0l0.1-0.1
		l-0.1-0.1l0,0h0.2v0.1h0l0.1-0.1l0,0c0.3-0.1,0.5-0.3,0.5-0.5v-2.5c0-0.3-0.1-0.5-0.4-0.5h-0.5l0,0l0,0h-2.6l-0.1-0.1v-0.7l0.1-0.1
		H50c0.3,0,0.5-0.1,0.5-0.4v-2.8c0-0.3-0.3-0.4-0.8-0.4h-7.5c-0.5,0-0.8,0.2-0.8,0.6v4.8l0,0.1l0,0.2v6.1c0,0.3,0.3,0.5,1,0.5h0.1v0
		l-0.1,0.2h0c0.5-0.2,0.9-0.3,1.2-0.3h0.1l0.1,0.1v0.2h0l0.1-0.1v-0.2h0.3l0.4,0l0,0v0c0.7,0,1-0.2,1-0.4l0.3-0.3
		c0.1,0,0.1,0.1,0.1,0.3l-0.3,0.2l0,0.1h0l0.1,0l0,0v0l-0.1,0v0.2l0,0h0l0.1,0.1v0h0l0,0h0c0,0.2-0.1,0.4-0.4,0.7L45,30.5l0.1-0.2v0
		h0l-0.4,0.2c-0.1,0-0.2,0-0.2-0.1l-0.6,0.1c-0.2,0-0.3-0.1-0.4-0.1l-0.2,0.1L43,30.3l-0.2,0.1l-0.2-0.1h0c0,0.1,0,0.2-0.1,0.2v-0.1
		l-0.2,0L42,30.3l-0.2,0.1l-0.3-0.2v0c0-0.1,0-0.1,0.1-0.1v-0.1h-0.1l-0.1,0.1c-0.1-0.2-0.3-0.2-0.4-0.2l0,0v-0.1h0.1l0,0h0
		c0-0.3-0.1-0.4-0.2-0.4v0.1h-0.1v-0.2H41L40.9,29h0l0.2,0.1v-0.2l0,0h0l-0.1-0.1l0.1-0.1l0-0.2l0.1-0.1v0c-0.1-0.3-0.2-0.6-0.2-0.8
		l0-0.5l0,0h0v0l0,0l0-0.3v0c0-0.1,0.1-0.2,0.2-0.3c0-0.2-0.1-0.4-0.2-0.5c0-0.2,0.1-0.4,0.2-0.4l0,0v-0.1l0,0h0v0l0-0.2l0-0.1
		L41,25.1V25l0.1-0.2l0,0l0,0h-0.1l0-0.3l0.1-0.1l0-0.9l0-0.2l-0.1-0.2l0.1-0.6l-0.1-0.1v-0.2l0-0.2l0-0.1c0.1,0,0.1-0.1,0.1-0.3
		l-0.2-1.1h0.1v0.1l0,0h0l0,0v0l0,0.3h0.1c0-0.1,0-0.1,0.1-0.1v-0.1c-0.1,0-0.1-0.1-0.1-0.2H41v-0.1l0,0l0,0v-0.4l0,0v0h-0.1l0-0.2
		l0-0.5h0.1v0L41,19.1l0.1-0.2v-0.1h-0.2v0l0-0.2c-0.1-0.1-0.1-0.3-0.1-0.4l0.3-0.3l-0.1-0.5l0.2-0.2l0,0c0.2-0.2,0.5-0.3,0.7-0.3
		h0.1l0,0l0.3-0.1l0,0h0l0.2-0.1l0.4,0.2c0.1,0,0.2-0.1,0.2-0.2h0.8l0.2,0v0.1h0.1l0.5-0.1v0.1l1.1-0.1l0.1,0.1l0.4-0.1l0.1,0
		L47,16.6z M41,29.5L41,29.5L41,29.5L41,29.5z M41,22.2L41,22.2h0.2V22L41,22.2z M41.2,29.9L41.2,29.9L41.2,29.9L41.2,29.9
		L41.2,29.9z M41.9,17.5h8l0.1,0.1v2.6L50,20.2h-4.7v1.7l0.1,0.1H48c0.1,0,0.1,0.1,0.1,0.2h0l0,0.1c0.1,0,0.1-0.1,0.1-0.3l0,0l0,0
		h0.6l0.1,0.1v1.1l0,0v0l0,0l-0.2,0l-0.4-0.1c0,0.1,0,0.1-0.1,0.1l0,0l-0.1,0.1h0l0.6,0l0,0l0,0h0.1v0.3c0,0.1-0.1,0.1-0.2,0.1
		l-0.1,0.1l-0.1-0.1l0,0.2h0.1l0.1-0.1l0,0l0.2-0.1l0.1,0.1V24l-0.1,0.2c0.1,0,0.1,0,0.1,0.1v0.2l-0.1,0.1h-0.1l-0.2-0.1
		c0,0.1,0,0.1-0.1,0.1h0c-0.1,0-0.2-0.1-0.2-0.2l-0.1,0l0,0.2h-0.6l0,0l0,0h-0.1v0l0,0v0h-0.1c0-0.1,0-0.1,0.1-0.1l-0.1-0.1
		l-0.3,0.3h-0.4v-0.2l0-0.2l0-0.1l0,0v0l0-0.1l0.1-0.1v-0.1L46.6,24v0l0.1-0.1h0c-0.1,0-0.1,0.1-0.2,0.2l0,0v0l0,0.2h0.1v0l-0.1,0.1
		l0,0.1l-0.1-0.1l0,0v-0.1h0v0.1h0l0,0h0l0,0v-0.1c0-0.1-0.1-0.1-0.2-0.1v0l0,0.2v0.1l0,0v0l0.1,0.1l-0.1,0.1h-1v0.1h0l0,0.2v0.4
		l0,0l0,0v0.1h0c-0.1,0-0.2-0.1-0.2-0.2c-0.2,0-0.3,0.1-0.4,0.2l0.3,0l0,0h0l0.2,0.1v0.1l-0.1,0.1l0,0l0,0v0l0,0.1h0L44.8,26l0,0v0
		l0.2-0.1v0.1l0,0h0v0.1h-0.1l0,0h0l0,0.2h0.1v0.1l-0.2,0v-0.1h0.1v0h-0.1l-0.1,0v-0.1l0.2,0v0c-0.1,0-0.1-0.1-0.2-0.4L44.5,26
		l-0.2,0l-0.2,0L44,26l-0.1-0.3l0.4-0.1v0l-0.2,0c0,0.1-0.3,0.1-0.8,0.3v0l0.2,0.1c0-0.1,0.1-0.1,0.3-0.1v0.1c-0.1,0-0.1,0-0.1,0.1
		c0.1,0,0.1,0,0.1,0.1l-0.1,0v0.1l0.2,0v0l0.2-0.1h0.2c-0.4,0.3-0.6,0.5-0.6,0.6c0.1,0,0.1,0.1,0.1,0.2l0,0H44l0,0.2l0,0h0l0.1,0.1
		L44,27v0.1c0.1,0,0.1,0,0.1,0.1l-0.1,0v0l0.2,0c0-0.2,0.1-0.3,0.4-0.4l0.6-0.2v0l-0.4,0.4h-0.1c0-0.1,0.1-0.1,0.2-0.1V27h-0.1
		c0,0-0.1,0.1-0.2,0.3l-0.4,0.1l0,0v0.1l-0.1-0.1v0.1l0.8-0.1l0,0v0.1L44.4,28h0.1c0-0.1,0.1-0.2,0.4-0.3l0.1,0.1l0.2-0.2h0v0.2
		L45,28V28l0,0l0,0h0c0,0.1-0.1,0.1-0.4,0.1c-0.2,0-0.3,0-0.3-0.1l0,0h0l-0.2,0v0.1h0.1v0.1h-0.1l0,0h0l-0.1,0.2
		c0.1,0,0.1,0,0.1,0.1h0.1v0.1l-0.7,0v0l0,0h-0.6l0-0.2h-0.2l0.1,0.1v0.1l-0.4,0h-0.3l-0.1-0.1v-1.1l0,0v0l0.2,0.1v-0.1
		c-0.2,0-0.2-0.1-0.2-0.1L41.9,17.5L41.9,17.5z M42.6,27.9l-0.2-0.1l-0.2,0.1l-0.2,0h0v0h0.1v0l-0.1,0.2v0.1c0.2,0,0.4-0.1,0.6-0.2
		l0.4-0.1v0c-0.1,0-0.2,0-0.2-0.1L42.6,27.9z M42,27.3L42,27.3l0.1,0v0H42z M42.4,27.6L42.4,27.6L42.4,27.6L42.4,27.6L42.4,27.6z
		 M42.5,28.1L42.5,28.1L42.5,28.1L42.5,28.1L42.5,28.1z M42.8,28.4L42.8,28.4l0.2,0v0H42.8z M42.9,27.7L42.9,27.7L42.9,27.7
		L42.9,27.7L42.9,27.7z M43.1,26.3L43.1,26.3L43.1,26.3L43.1,26.3L43.1,26.3z M43.1,27.4L43.1,27.4l0.3,0.1v-0.1l-0.2,0L43.1,27.4z
		 M43.2,25.2L43.2,25.2l0.1,0v0H43.2z M43.2,25.9L43.2,25.9L43.2,25.9L43.2,25.9L43.2,25.9z M43.2,26.4L43.2,26.4
		c0,0.3,0.1,0.4,0.1,0.4l0.1-0.2C43.4,26.5,43.3,26.4,43.2,26.4z M43.8,27.5L43.8,27.5L43.8,27.5c0,0.1,0,0.1,0,0.2l0,0h0l0,0v0l0,0
		h0l0-0.1h0c0,0.1-0.1,0.1-0.2,0.2c0-0.1,0-0.1-0.1-0.1h0l-0.2,0.3l0.2,0c0.1,0,0.1,0.1,0.1,0.3l0,0h0c0-0.2,0.1-0.3,0.1-0.3l0,0
		l0,0v0.1l0.1,0.1h0l0,0V28l0.1-0.1l0,0h0l0.2-0.2l0,0v-0.1c-0.1,0-0.1,0-0.1-0.1v-0.1l0,0l0-0.1h0c0,0.1,0,0.2-0.1,0.2l0,0
		L43.8,27.5h0.1v-0.1L43.8,27.5L43.8,27.5z M43.3,27.3L43.3,27.3l0.2,0.1v0L43.3,27.3z M43.4,25.2L43.4,25.2l0.1,0v0H43.4z
		 M43.5,28.3L43.5,28.3L43.5,28.3L43.5,28.3L43.5,28.3z M43.5,26.9L43.5,26.9L43.5,26.9L43.5,26.9L43.5,26.9z M43.6,27.3L43.6,27.3
		L43.6,27.3L43.6,27.3L43.6,27.3z M43.7,25.5L43.7,25.5l0.1,0v0H43.7z M43.7,27.4L43.7,27.4l0.1-0.2C43.8,27.2,43.7,27.3,43.7,27.4z
		 M43.8,26.2L43.8,26.2l0.1,0.1v-0.1H43.8z M43.8,26.8V27V26.8L43.8,26.8L43.8,26.8z M44,28.4L44,28.4l0.1,0.2h0L44,28.4z
		 M44.2,26.2L44.2,26.2L44.2,26.2L44.2,26.2L44.2,26.2z M45.1,28.1L45.1,28.1l0.2,0.1v0.1c0,0.1,0,0.2-0.1,0.2h0v-0.1H45l-0.1,0.2
		h0.1v-0.1h0l0.1,0.1c0,0.1-0.1,0.2-0.4,0.2h-0.4c0,0-0.1-0.1-0.1-0.2c0-0.2,0.1-0.3,0.4-0.3l0.2,0l0.4-0.1L45.1,28.1z M45.1,26.4
		L45.1,26.4L45.1,26.4v0.1v0c0.1,0,0.1,0,0.1,0.1l0,0h0v-0.1c-0.1,0-0.1,0-0.1-0.1l-0.3,0.1l0,0c0,0-0.1,0.1-0.3,0.1v0l0,0l-0.2,0.1
		h0v-0.1c0.1,0,0.1,0,0.1-0.1h-0.1v0C44.3,26.6,44.6,26.5,45.1,26.4z M44.3,27.8L44.3,28v0l0.2-0.2v0H44.3z M44.3,25.8L44.3,25.8
		L44.3,25.8L44.3,25.8z M44.3,26.3L44.3,26.3L44.3,26.3L44.3,26.3z M44.4,25.2L44.4,25.2l0.4,0v0H44.4z M44.5,25.5L44.5,25.5
		L44.5,25.5L44.5,25.5L44.5,25.5z M44.5,25.7L44.5,25.7L44.5,25.7L44.5,25.7z M44.5,28.6L44.5,28.6L44.5,28.6L44.5,28.6L44.5,28.6z
		 M44.6,27L44.6,27L44.6,27L44.6,27z M44.8,24.8L44.8,24.8L44.8,24.8L44.8,24.8z M45,25c0,0.1,0,0.1-0.1,0.1v0.1l0.2,0.1L45,25
		L45,25z M45,25.8L45,25.8L45,25.8L45,25.8L45,25.8z M45,26.7L45,26.7L45,26.7L45,26.7L45,26.7z M45.1,27L45.1,27L45.1,27L45,27.2
		l0,0v0L45.1,27z M45.1,16.6h0.1v0.1L45.1,16.6L45.1,16.6z M45.3,29.5L45.3,29.5L45.3,29.5L45.3,29.5z M45.5,29.3L45.5,29.3
		L45.5,29.3L45.5,29.3L45.5,29.3z M45.5,23.4L45.5,23.4l0.1,0.1v0L45.5,23.4z M45.7,23.8L45.7,23.8l0,0.2l-0.1,0.2l0.1,0l0.2,0l0,0
		l0.1-0.2L46,23.8h-0.1l0,0l0,0H45.7z M45.7,25.9L45.7,25.9L45.7,25.9L45.7,25.9L45.7,25.9z M45.8,26.2l0,0.2h0c0-0.1,0-0.1,0.1-0.1
		l0,0v0.1l-0.1,0.1l0,0h-0.1v0.1l0.3,0.2v0.1L46,27h0l0,0h0V27h0l0,0.2v0.1l-0.1,0.1h0l0-0.2l0,0l0-0.2L45.8,26.2L45.8,26.2z
		 M45.7,27.4L45.7,27.4L45.7,27.4L45.7,27.4L45.7,27.4z M45.9,27.5L45.9,27.5L45.9,27.5v0.2h0L45.9,27.5l0.1,0.2v0h-0.1v0
		c0.1,0,0.2,0.1,0.2,0.2v0L46,28h0v0l0,0v0l-0.2-0.1l0,0v0l-0.1-0.1v0L45.9,27.5z M45.8,27.9L45.8,27.9l0.1,0.1v0l0,0h0.1v0.2
		L46,28.4l-0.1-0.1l0,0h-0.1L45.8,27.9L45.8,27.9z M45.8,23.6L45.8,23.6L45.8,23.6L45.8,23.6L45.8,23.6z M45.9,25.6l0,0.2H46v0
		L45.9,25.6L45.9,25.6z M46,27L46,27L46,27L46,27L46,27z M46.1,21.1L46.1,21.1L46.1,21.1L46.1,21.1L46.1,21.1z M46.1,23.9L46.1,23.9
		l0.1,0.1L46.1,23.9L46.1,23.9z M46.4,21L46.4,21L46.4,21h0.2v-0.1L46.4,21z M46.7,24L46.7,24l-0.1,0.1l0,0v0L46.7,24L46.7,24z
		 M46.6,25.2L46.6,25.2L46.6,25.2L46.6,25.2L46.6,25.2z M46.7,21.1H47L46.9,21L46.7,21.1L46.7,21.1z M46.8,23.4L46.8,23.4l0.2,0v0
		H46.8z M46.8,25.4L46.8,25.4l0.6,0.1h0.2v0c-0.2,0-0.3,0-0.4-0.1l-0.2,0v0L46.8,25.4z M46.9,23.6L46.9,23.6L46.9,23.6L46.9,23.6
		L46.9,23.6z M46.9,23.7L46.9,23.7L46.9,23.7L46.9,23.7L46.9,23.7z M46.9,24H47l0.2-0.1l0,0c0-0.1,0.1-0.1,0.2-0.1v-0.1
		C47.1,23.9,46.9,23.9,46.9,24z M46.9,23.3L46.9,23.3l0.1,0v0H46.9z M47.1,24.1L47,24.2v0.1h0C47.1,24.2,47.1,24.2,47.1,24.1
		L47.1,24.1L47.1,24.1z M47.1,21L47.1,21l0.1,0v0H47.1z M47.2,23.4L47.2,23.4L47.2,23.4L47.2,23.4L47.2,23.4z M47.3,24l0,0.1h0V24
		L47.3,24L47.3,24z M47.3,21.1L47.3,21.1L47.3,21.1L47.3,21.1L47.3,21.1z M47.5,24.2L47.5,24.2L47.5,24.2L47.5,24.2z M47.6,23.7
		L47.6,23.7L47.6,23.7L47.6,23.7L47.6,23.7z M47.6,24.2L47.6,24.2l0.1-0.1L47.6,24.2L47.6,24.2z M47.7,25.4L47.7,25.4
		c0.2-0.1,0.3-0.1,0.3-0.2v0L47.7,25.4z M47.7,23.7L47.7,23.7L47.7,23.7L47.7,23.7z M47.9,24l-0.1,0.2h0.1l0.1-0.1L47.9,24L47.9,24z
		 M47.8,24.3L47.8,24.3L47.8,24.3L47.8,24.3L47.8,24.3z M48,25.2L48,25.2L48,25.2L48,25.2z M48.1,23.8L48.1,23.8L48.1,23.8
		L48.1,23.8L48.1,23.8z M48.1,24.2L48.1,24.2L48.1,24.2L48.1,24.2L48.1,24.2z M48.2,24L48.2,24L48.2,24L48.2,24z M48.2,23.5
		L48.2,23.5L48.2,23.5h0.1v0L48.2,23.5z M48.5,24.1L48.5,24.1l0,0.1h0V24.1L48.5,24.1L48.5,24.1z M48.7,21.1L48.7,21.1L48.7,21.1
		h0.4v0l0,0h0l0.1,0v-0.1H49L48.7,21.1z M48.7,24.4L48.7,24.4L48.7,24.4L48.7,24.4L48.7,24.4z M50,21.2h-0.3l0,0h0l-0.1-0.1
		l-0.1,0.2l0.2,0.1l0.3-0.1H50l0.1,0.1c-0.1,0.1-0.2,0.2-0.4,0.2v0.1l0.2,0c0.1,0,0.3-0.1,0.4-0.3c-0.1,0-0.1,0-0.1-0.1l0.2-0.1v0
		l-0.1-0.1h0L50,21.2z M49.5,21.8L49.5,21.8l0,0.2l0,0.1l0,0h0l0.1-0.2C49.6,21.9,49.6,21.8,49.5,21.8z M49.6,21.7L49.6,21.7
		L49.6,21.7L49.6,21.7L49.6,21.7z"/>
</g>
</svg>
